<svg xmlns="http://www.w3.org/2000/svg" width="86" height="53.323" viewBox="0 0 86 53.323">
  <g id="Group_186721" data-name="Group 186721" transform="translate(-594.378 -647.134)">
    <g id="Path_99174" data-name="Path 99174" transform="translate(595.077 657.975)">
      <path d="M 67.90642547607422 41.73164749145508 L 16.00000190734863 41.73164749145508 C 11.92657947540283 41.73164749145508 8.096968650817871 40.14536666870117 5.216623783111572 37.26502227783203 C 2.336279392242432 34.38467788696289 0.7500016093254089 30.55506896972656 0.7500016093254089 26.48164558410645 L 0.7500016093254089 16.00000190734863 C 0.7500016093254089 11.92657947540283 2.336279392242432 8.096968650817871 5.216623783111572 5.216623783111572 C 8.096968650817871 2.336279392242432 11.92657947540283 0.7500015497207642 16.00000190734863 0.7500015497207642 L 67.90642547607422 0.7500015497207642 C 71.97984313964844 0.7500015497207642 75.80945587158203 2.336279392242432 78.68980407714844 5.216623783111572 C 81.57014465332031 8.096968650817871 83.15642547607422 11.92657947540283 83.15642547607422 16.00000190734863 L 83.15642547607422 26.48164558410645 C 83.15642547607422 30.55506896972656 81.57014465332031 34.38467788696289 78.68980407714844 37.26502227783203 C 75.80945587158203 40.14536666870117 71.97984313964844 41.73164749145508 67.90642547607422 41.73164749145508 Z" stroke="none"/>
      <path d="M 16 1.5 C 12.12690734863281 1.5 8.485649108886719 3.008258819580078 5.746955871582031 5.746952056884766 C 3.008262634277344 8.485649108886719 1.5 12.12690544128418 1.5 16 L 1.5 26.48164749145508 C 1.5 30.35474014282227 3.008262634277344 33.99600219726562 5.746955871582031 36.73469543457031 C 8.485649108886719 39.473388671875 12.12690734863281 40.98164749145508 16 40.98164749145508 L 67.90642547607422 40.98164749145508 C 71.77951812744141 40.98164749145508 75.4207763671875 39.473388671875 78.15946960449219 36.73469543457031 C 80.89816284179688 33.99600219726562 82.40642547607422 30.35474014282227 82.40642547607422 26.48164749145508 L 82.40642547607422 16 C 82.40642547607422 12.12690544128418 80.89816284179688 8.485649108886719 78.15946960449219 5.746952056884766 C 75.4207763671875 3.008258819580078 71.77951812744141 1.5 67.90642547607422 1.5 L 16 1.5 M 16 0 L 67.90642547607422 0 C 76.74298095703125 0 83.90642547607422 7.163448333740234 83.90642547607422 16 L 83.90642547607422 26.48164749145508 C 83.90642547607422 35.31819915771484 76.74298095703125 42.48164749145508 67.90642547607422 42.48164749145508 L 16 42.48164749145508 C 7.163444519042969 42.48164749145508 0 35.31819915771484 0 26.48164749145508 L 0 16 C 0 7.163448333740234 7.163444519042969 0 16 0 Z" stroke="none" fill="#fff"/>
    </g>
    <g id="Group_186722" data-name="Group 186722">
      <path id="Path_99173" data-name="Path 99173" d="M16,0H70A16,16,0,0,1,86,16V31A16,16,0,0,1,70,47H16A16,16,0,0,1,0,31V16A16,16,0,0,1,16,0Z" transform="translate(594.378 647.134)" fill="#94d84f"/>
      <path id="Path_99172" data-name="Path 99172" d="M6.909,0c4.389,0,7.434-2.772,7.434-6.993S11.3-14.007,6.909-14.007H1.386V0ZM4.368-11.382H6.909A4.1,4.1,0,0,1,11.3-6.993,4.193,4.193,0,0,1,6.909-2.625H4.368ZM19.446,0V-14.007H16.464V0ZM35.28,0l-5.4-14.007H26.145L20.727,0H24l.882-2.415h6.258L32.025,0ZM30.324-5H25.683l2.331-6.426ZM45.486,0V-2.625H39.564V-14.007H36.582V0Z" transform="translate(614.392 678.143)"/>
    </g>
  </g>
</svg>
