<svg xmlns="http://www.w3.org/2000/svg" xmlns:xlink="http://www.w3.org/1999/xlink" width="70" height="70" viewBox="0 0 70 70">
  <defs>
    <linearGradient id="linear-gradient" x1="0.5" x2="0.5" y2="1" gradientUnits="objectBoundingBox">
      <stop offset="0" stop-color="#bc4e9c"/>
      <stop offset="1" stop-color="#f80759"/>
    </linearGradient>
  </defs>
  <g id="Flexible" transform="translate(0 0)">
    <path id="Path_98061" data-name="Path 98061" d="M69.42,33.512l-6.287-6.564a2.051,2.051,0,1,0-2.961,2.838L63.2,32.949H50.171a15.307,15.307,0,0,0-3.717-8.116A41.668,41.668,0,0,0,52.9,6.94l2.612,2.8a2.051,2.051,0,1,0,3-2.8L52.626.644a2.065,2.065,0,0,0-2.916-.08l-6.561,6.29a2.051,2.051,0,1,0,2.837,2.962l2.746-2.633a37.583,37.583,0,0,1-5.415,14.942,15.247,15.247,0,0,0-16.634,0A37.578,37.578,0,0,1,21.268,7.182l2.746,2.633a2.051,2.051,0,0,0,2.837-2.962L20.291.564a2.065,2.065,0,0,0-2.916.08L11.5,6.934a2.051,2.051,0,1,0,3,2.8L17.1,6.94a41.668,41.668,0,0,0,6.442,17.893,15.307,15.307,0,0,0-3.717,8.116H6.8l3.029-3.162a2.051,2.051,0,1,0-2.961-2.838L.58,33.512a2.2,2.2,0,0,0,0,2.975l6.287,6.564a2.051,2.051,0,1,0,2.961-2.838L6.8,37.051h13.03a15.307,15.307,0,0,0,3.717,8.116A41.668,41.668,0,0,0,17.1,63.06l-2.612-2.8a2.051,2.051,0,1,0-3,2.8l5.877,6.29a2.064,2.064,0,0,0,2.916.08l6.56-6.29a2.051,2.051,0,0,0-2.837-2.962l-2.746,2.633a37.583,37.583,0,0,1,5.415-14.942,15.247,15.247,0,0,0,16.634,0,37.578,37.578,0,0,1,5.415,14.942l-2.746-2.633a2.051,2.051,0,0,0-2.837,2.962l6.561,6.29a2.064,2.064,0,0,0,2.916-.08l5.877-6.29a2.051,2.051,0,1,0-3-2.8l-2.612,2.8a41.668,41.668,0,0,0-6.442-17.893,15.307,15.307,0,0,0,3.717-8.116H63.2l-3.029,3.162a2.051,2.051,0,1,0,2.961,2.838l6.287-6.564a2.2,2.2,0,0,0,0-2.975ZM23.792,35A11.208,11.208,0,1,1,35,46.24,11.237,11.237,0,0,1,23.792,35Z" transform="translate(0 0)" fill="url(#linear-gradient)"/>
    <path id="Path_98062" data-name="Path 98062" d="M220.074,222.6l-3.732,3.741-1.469-1.473a2.051,2.051,0,1,0-2.9,2.9l2.92,2.928a2.049,2.049,0,0,0,2.9,0l5.183-5.2a2.051,2.051,0,1,0-2.9-2.9Z" transform="translate(-182.474 -191.642)" fill="url(#linear-gradient)"/>
  </g>
</svg>
