<?xml version="1.0" encoding="UTF-8"?>
<svg id="Layer_1" data-name="Layer 1" xmlns="http://www.w3.org/2000/svg" viewBox="0 0 1080 340.32">
  <defs>
    <style>
      .cls-1 {
        fill: #181a26;
      }
    </style>
  </defs>
  <polygon class="cls-1" points="23.5 30.41 23.5 57 23.5 66.19 23.5 210.12 59.28 210.12 59.28 137.75 143.72 137.75 143.72 101.97 59.28 101.97 59.28 66.19 1056.51 66.19 1056.51 30.41 23.5 30.41"/>
  <path class="cls-1" d="M274.57,139.68c0-23.97-19.4-43.45-43.37-43.45-31.38-.16-68.39-.24-68.39-.24v114.13h31.06v-26.75h30.9l18.75,26.75h34.24l-23.64-33.43c12.31-7.74,20.46-21.44,20.46-37.01ZM231.04,151.01h-36.36v-26.49h36.36c7.34,0,13.29,5.87,13.29,13.21s-5.95,13.29-13.29,13.29Z"/>
  <path class="cls-1" d="M387.91,210.12h36.11l-42.63-113.16h-51.76l-42.72,113.16h36.19s.08.08.08,0l32.28-85.6,32.28,85.6c.08.08.08,0,.16,0Z"/>
  <path class="cls-1" d="M591.52,210.12v-113.56h-40.9c-17.81,0-31.38,4.57-40.4,13.6-9.03-9.03-22.6-13.6-40.41-13.6h-36.58v113.56h26.98v-86.58h9.6c18.36,0,26.91,8.55,26.91,26.92v59.67h26.98v-59.67c0-18.37,8.55-26.92,26.92-26.92h13.93v86.58h26.97Z"/>
  <rect class="cls-1" x="613.62" y="97.44" width="30.98" height="112.69"/>
  <path class="cls-1" d="M732.94,138.74h-32.44c-1.55,0-2.93-.57-3.98-1.63-1.06-1.06-1.71-2.52-1.71-3.98,0-3.09,2.52-5.61,5.69-5.61h68.13v-30.41s-37.81-.57-67.97-.98c-9.76-.16-19.11,3.58-26.02,10.41-6.91,6.83-10.81,16.1-10.81,25.77s3.9,19.11,10.73,26.02c6.91,6.91,16.26,10.81,26.02,10.81h33.33c.98,0,1.95.41,2.6,1.06.73.73,1.14,1.71,1.14,2.68v1.55c0,1.38-.57,2.76-1.54,3.74-1.06,1.06-2.36,1.63-3.82,1.63h-68.46v30.33h69.11c9.51,0,18.54-3.74,25.28-10.49,6.67-6.67,10.41-15.69,10.41-25.2,0-19.68-15.94-35.69-35.69-35.69Z"/>
  <polygon class="cls-1" points="860.83 210.12 860.83 127.52 902.95 127.52 902.95 97.11 787.66 97.11 787.66 127.52 829.78 127.52 829.78 210.12 860.83 210.12"/>
  <polygon class="cls-1" points="981.41 130.45 956.7 97.44 906.45 97.44 965.88 164.67 965.88 210.12 996.94 210.12 996.94 164.67 1056.37 97.44 1006.13 97.44 981.41 130.45"/>
  <path class="cls-1" d="M53.83,239.39h-30.66v14.15h30.66c14.24,0,21.22,6.98,21.22,21.22s-6.98,21.22-21.22,21.22h-16.51v-37.73h-14.15v51.88h30.66c23.68,0,35.37-11.7,35.37-35.37s-11.7-35.37-35.37-35.37Z"/>
  <rect class="cls-1" x="101.48" y="239.39" width="59.8" height="14.15"/>
  <polygon class="cls-1" points="115.63 281.83 149.97 281.83 149.97 267.69 115.63 267.69 115.63 258.25 101.48 258.25 101.48 310.13 161.29 310.13 161.29 295.98 115.63 295.98 115.63 281.83"/>
  <path class="cls-1" d="M173.57,260.61c0,14.24,6.98,21.22,21.22,21.22h24.53c4.72,0,7.08,2.36,7.08,7.07s-2.36,7.08-7.08,7.08h-45.75v14.15h45.75c14.24,0,21.22-6.98,21.22-21.22s-6.98-21.22-21.22-21.22h-24.53c-4.72,0-7.08-2.36-7.08-7.07s2.36-7.08,7.08-7.08h45.75v-14.15h-45.75c-14.24,0-21.22,6.98-21.22,21.22Z"/>
  <rect class="cls-1" x="252.82" y="239.39" width="14.15" height="70.75"/>
  <path class="cls-1" d="M279.24,274.76c0,23.68,11.7,35.37,35.37,35.37h30.66v-42.45h-24.05v14.15h9.9v14.15h-16.51c-14.24,0-21.22-6.98-21.22-21.22s6.98-21.22,21.22-21.22h30.66v-14.15h-30.66c-23.68,0-35.37,11.7-35.37,35.37Z"/>
  <path class="cls-1" d="M410.37,289.85c0,4.15-1.98,6.13-6.13,6.13s-6.13-1.98-6.13-6.13v-30.19c0-13.58-6.7-20.28-20.28-20.28h-20.28v70.75h14.15v-56.6h6.13c4.15,0,6.13,1.98,6.13,6.13v30.19c0,13.58,6.7,20.28,20.28,20.28s20.28-6.7,20.28-20.28v-50.47h-14.15v50.47Z"/>
  <rect class="cls-1" x="467.94" y="239.39" width="14.15" height="70.75"/>
  <path class="cls-1" d="M547.18,289.85c0,4.15-1.98,6.13-6.13,6.13s-6.13-1.98-6.13-6.13v-30.19c0-13.58-6.7-20.28-20.28-20.28h-20.28v70.75h14.15v-56.6h6.13c4.15,0,6.13,1.98,6.13,6.13v30.19c0,13.58,6.7,20.28,20.28,20.28s20.28-6.7,20.28-20.28v-50.47h-14.15v50.47Z"/>
  <path class="cls-1" d="M573.61,260.61c0,14.24,6.98,21.22,21.22,21.22h24.53c4.72,0,7.08,2.36,7.08,7.07s-2.36,7.08-7.08,7.08h-45.75v14.15h45.75c14.24,0,21.22-6.98,21.22-21.22s-6.98-21.22-21.22-21.22h-24.53c-4.72,0-7.08-2.36-7.08-7.07s2.36-7.08,7.08-7.08h45.75v-14.15h-45.75c-14.24,0-21.22,6.98-21.22,21.22Z"/>
  <polygon class="cls-1" points="652.86 253.54 679.28 253.54 679.28 310.13 693.42 310.13 693.42 253.54 719.84 253.54 719.84 239.39 652.86 239.39 652.86 253.54"/>
  <rect class="cls-1" x="732.12" y="239.39" width="14.15" height="70.75"/>
  <polygon class="cls-1" points="758.53 253.54 784.95 253.54 784.95 310.13 799.1 310.13 799.1 253.54 825.51 253.54 825.51 239.39 758.53 239.39 758.53 253.54"/>
  <path class="cls-1" d="M890.61,276.65c0,12.92-6.41,19.34-19.34,19.34s-19.34-6.42-19.34-19.34v-37.26h-14.15v37.26c0,22.45,11.04,33.49,33.49,33.49s33.49-11.04,33.49-33.49v-37.26h-14.15v37.26Z"/>
  <polygon class="cls-1" points="917.04 253.54 943.45 253.54 943.45 310.13 957.6 310.13 957.6 253.54 984.02 253.54 984.02 239.39 917.04 239.39 917.04 253.54"/>
  <polygon class="cls-1" points="1010.44 281.83 1044.78 281.83 1044.78 267.69 1010.44 267.69 1010.44 258.25 996.3 258.25 996.3 310.13 1056.1 310.13 1056.1 295.98 1010.44 295.98 1010.44 281.83"/>
  <rect class="cls-1" x="996.3" y="239.39" width="59.8" height="14.15"/>
</svg>