<svg xmlns="http://www.w3.org/2000/svg" width="70" height="70" viewBox="0 0 70 70">
  <g id="Group_186510" data-name="Group 186510" transform="translate(-265 -888)">
    <circle id="Ellipse_3" data-name="Ellipse 3" cx="35" cy="35" r="35" transform="translate(265 888)" fill="#ed2080"/>
    <g id="freelance" transform="translate(285.167 908)">
      <g id="Group_186498" data-name="Group 186498" transform="translate(0)">
        <g id="Group_186497" data-name="Group 186497">
          <path id="Path_98028" data-name="Path 98028" d="M.623,8.618a.879.879,0,0,0,0,1.682l10.311,3.194L28.613.132l.1-.132Z" fill="#fff"/>
        </g>
      </g>
      <g id="Group_186500" data-name="Group 186500" transform="translate(9.584 5.271)">
        <g id="Group_186499" data-name="Group 186499">
          <path id="Path_98029" data-name="Path 98029" d="M164.95,100.355l-1.326,3.556a.878.878,0,0,0,1.13,1.13l3.557-1.326,10.4-13.763Z" transform="translate(-163.568 -89.952)" fill="#fff"/>
        </g>
      </g>
      <g id="Group_186502" data-name="Group 186502" transform="translate(16.506 1.287)">
        <g id="Group_186501" data-name="Group 186501">
          <path id="Path_98030" data-name="Path 98030" d="M295.07,22.065,281.708,39.743,284.9,50.054a.879.879,0,0,0,.84.624h0a.88.88,0,0,0,.841-.623l8.617-28.09Z" transform="translate(-281.708 -21.965)" fill="#fff"/>
        </g>
      </g>
      <g id="Group_186504" data-name="Group 186504" transform="translate(0.406 17.591)">
        <g id="Group_186503" data-name="Group 186503">
          <path id="Path_98031" data-name="Path 98031" d="M13.708,300.481a.879.879,0,0,0-1.243,0l-5.273,5.273A.879.879,0,0,0,8.435,307l5.273-5.273A.879.879,0,0,0,13.708,300.481Z" transform="translate(-6.935 -300.224)" fill="#fff"/>
        </g>
      </g>
      <g id="Group_186506" data-name="Group 186506" transform="translate(5.377 22.563)">
        <g id="Group_186505" data-name="Group 186505">
          <path id="Path_98032" data-name="Path 98032" d="M98.552,385.325a.879.879,0,0,0-1.243,0L92.036,390.6a.879.879,0,1,0,1.243,1.243l5.273-5.273A.879.879,0,0,0,98.552,385.325Z" transform="translate(-91.779 -385.067)" fill="#fff"/>
        </g>
      </g>
      <g id="Group_186508" data-name="Group 186508" transform="translate(0 22.09)">
        <g id="Group_186507" data-name="Group 186507">
          <path id="Path_98033" data-name="Path 98033" d="M7.652,377.258a.879.879,0,0,0-1.243,0L.257,383.411A.879.879,0,1,0,1.5,384.653L7.652,378.5A.878.878,0,0,0,7.652,377.258Z" transform="translate(0 -377.001)" fill="#fff"/>
        </g>
      </g>
    </g>
  </g>
</svg>
