<svg xmlns="http://www.w3.org/2000/svg" xmlns:xlink="http://www.w3.org/1999/xlink" width="70" height="70" viewBox="0 0 70 70">
  <defs>
    <linearGradient id="linear-gradient" x1="0.5" x2="0.5" y2="1" gradientUnits="objectBoundingBox">
      <stop offset="0" stop-color="#fb2f5c"/>
      <stop offset="1" stop-color="#f08540"/>
    </linearGradient>
  </defs>
  <path id="MIssion" d="M36.2,2.409A33.753,33.753,0,0,0,20.688,6.188L15.1.6a2.053,2.053,0,0,0-3.376.735L8.905,8.9,1.336,11.726A2.053,2.053,0,0,0,.6,15.1l5.586,5.586A33.792,33.792,0,1,0,36.2,2.409Zm0,44.918a11.123,11.123,0,1,0-6.274-20.3l-5.163-5.163a18.373,18.373,0,1,1-2.9,2.9l5.163,5.163a11.116,11.116,0,0,0,9.178,17.4Zm1.452-12.575L32.914,30.01a7.022,7.022,0,1,1-2.9,2.9l4.742,4.742a2.053,2.053,0,0,0,2.9-2.9ZM14.458,5.765l6.91,6.91-.888,4.9L12.886,9.982ZM5.765,14.458l4.217-1.572,7.593,7.593-4.9.888ZM36.2,65.893A29.679,29.679,0,0,1,9.257,23.757l1.275,1.275a2.054,2.054,0,0,0,1.818.569l4.525-.82a22.477,22.477,0,1,0,7.906-7.906l.82-4.525a2.054,2.054,0,0,0-.569-1.818L23.757,9.256A29.687,29.687,0,1,1,36.2,65.893Z" transform="translate(0 0)" fill="url(#linear-gradient)"/>
</svg>
