<svg xmlns="http://www.w3.org/2000/svg" xmlns:xlink="http://www.w3.org/1999/xlink" width="70" height="70.005" viewBox="0 0 70 70.005">
  <defs>
    <linearGradient id="linear-gradient" x1="0.5" x2="0.5" y2="1" gradientUnits="objectBoundingBox">
      <stop offset="0" stop-color="#fb2f5c"/>
      <stop offset="1" stop-color="#f08540"/>
    </linearGradient>
  </defs>
  <g id="start-up" transform="translate(-0.001 0)">
    <path id="Path_98002" data-name="Path 98002" d="M69.7,2.11A2.051,2.051,0,0,0,67.891.3C51.661-1.5,37.825,4.988,26.54,16.605a84.616,84.616,0,0,0-8.422,10.24A16.285,16.285,0,0,0,6.4,31.693l-5.8,5.8a2.051,2.051,0,0,0,1.981,3.432,28.562,28.562,0,0,1,5.634-.88,15.84,15.84,0,0,1,1.937.016c-1.28,2.462-2.261,4.525-2.587,5.041a2.051,2.051,0,0,0,.286,2.543L11.21,51C6.324,57.666,6.244,61.079,6.261,61.562a2.061,2.061,0,0,0,2.157,1.983c1.145,0,4.429-.486,10.408-4.926l3.531,3.531a2.052,2.052,0,0,0,2.559.275c.552-.355,2.494-1.3,4.822-2.512a50.1,50.1,0,0,1-.708,7.737A2.053,2.053,0,0,0,32.508,69.4l5.8-5.8a16.2,16.2,0,0,0,4.6-11.6A84.692,84.692,0,0,0,53.683,43.14C65.19,31.856,71.483,18.125,69.7,2.111ZM65.78,4.221A40.957,40.957,0,0,1,64.74,17.079a18.061,18.061,0,0,1-7.228-4.589,18.041,18.041,0,0,1-4.6-7.256A41.351,41.351,0,0,1,65.78,4.221ZM7.95,35.948,9.3,34.594a12.952,12.952,0,0,1,5.883-3.345C14.08,33,13.094,34.681,12.225,36.228a16.474,16.474,0,0,0-4.275-.28Zm3.881,9.876c.444-.876.981-1.974,1.966-3.836l2.7,2.7Q14.99,46.3,13.768,47.76Zm10.03-.785a6.065,6.065,0,0,1,4.708-1.805,6.134,6.134,0,0,1-1.807,4.706c-6.368,6.368-10.732,9.211-13.342,10.48,1.288-2.66,4.139-7.078,10.442-13.381ZM24.168,58.16l-2.115-2.116q1.448-1.231,3.063-2.738L27.99,56.18c-1.89,1.009-2.678,1.389-3.822,1.98ZM35.409,60.7l-1.642,1.642a20.016,20.016,0,0,0-.1-4.557c1.508-.849,3.146-1.812,4.863-2.889a12.1,12.1,0,0,1-3.12,5.8Zm-3.685-6.586-3.677-3.678c2.721-2.994,2.62-5.879,2.62-9.25a2.051,2.051,0,0,0-2.051-2.051c-3.149,0-6.179-.169-9.25,2.62l-3.512-3.512C25.442,21.428,36.527,10.783,48.98,6.4a22.089,22.089,0,0,0,5.632,8.991,22.1,22.1,0,0,0,8.95,5.619c-4.41,12.385-15.052,23.462-31.839,33.1Zm0,0" transform="translate(0 0)" fill="url(#linear-gradient)"/>
    <path id="Path_98003" data-name="Path 98003" d="M267.7,114.833a10.255,10.255,0,1,0,0,14.5A10.268,10.268,0,0,0,267.7,114.833Zm-2.9,11.6a6.153,6.153,0,1,1,0-8.7A6.16,6.16,0,0,1,264.795,126.436Zm0,0" transform="translate(-215.984 -96.543)" fill="url(#linear-gradient)"/>
  </g>
</svg>
