<svg xmlns="http://www.w3.org/2000/svg" width="60" height="60" viewBox="0 0 60 60">
  <g id="Group_186475" data-name="Group 186475" transform="translate(-1159 -1079)">
    <circle id="Ellipse_4" data-name="Ellipse 4" cx="30" cy="30" r="30" transform="translate(1159 1079)" fill="#f01d86"/>
    <g id="vector_1_" data-name="vector (1)" transform="translate(1174 1094)">
      <g id="Group_186464" data-name="Group 186464">
        <g id="Group_186463" data-name="Group 186463">
          <path id="Path_98012" data-name="Path 98012" d="M29.121,0H25.547a.878.878,0,0,0-.879.879v.879H17.475a2.621,2.621,0,0,0-4.95,0H5.332V.879A.878.878,0,0,0,4.453,0H.879A.878.878,0,0,0,0,.879V4.395a.878.878,0,0,0,.879.879H4.453a.878.878,0,0,0,.879-.879V3.5h3.61a11.466,11.466,0,0,0-5.3,9,2.629,2.629,0,1,0,1.754.04,9.645,9.645,0,0,1,7.272-8.707,2.615,2.615,0,0,0,4.667,0,9.645,9.645,0,0,1,7.272,8.707,2.644,2.644,0,1,0,1.754-.04,11.444,11.444,0,0,0-5.3-8.989h3.61v.879a.878.878,0,0,0,.879.879h3.574A.878.878,0,0,0,30,4.395V.879A.878.878,0,0,0,29.121,0Z" fill="#fff"/>
        </g>
      </g>
      <g id="Group_186466" data-name="Group 186466" transform="translate(8.982 26.426)">
        <g id="Group_186465" data-name="Group 186465">
          <path id="Path_98013" data-name="Path 98013" d="M165.291,453.484A3.574,3.574,0,0,0,161.949,451h-5.273a3.574,3.574,0,0,0-3.343,2.484.866.866,0,0,0,.855,1.09h10.249A.866.866,0,0,0,165.291,453.484Z" transform="translate(-153.294 -451)" fill="#fff"/>
        </g>
      </g>
      <g id="Group_186468" data-name="Group 186468" transform="translate(7.09 7.703)">
        <g id="Group_186467" data-name="Group 186467">
          <path id="Path_98014" data-name="Path 98014" d="M136.673,141.784l-6.884-10.325V139.8a2.637,2.637,0,1,1-1.758,0v-8.338l-6.884,10.325a.879.879,0,0,0,.11,1.109,11.1,11.1,0,0,1,3.043,5.922,5.234,5.234,0,0,1,1.973-.391h5.273a5.235,5.235,0,0,1,1.973.391,11.1,11.1,0,0,1,3.043-5.922A.879.879,0,0,0,136.673,141.784Z" transform="translate(-121 -131.459)" fill="#fff"/>
        </g>
      </g>
      <g id="Group_186470" data-name="Group 186470" transform="translate(14.121 17.637)">
        <g id="Group_186469" data-name="Group 186469">
          <path id="Path_98015" data-name="Path 98015" d="M241.879,301a.879.879,0,1,0,.879.879A.88.88,0,0,0,241.879,301Z" transform="translate(-241 -301)" fill="#fff"/>
        </g>
      </g>
    </g>
  </g>
</svg>
