<svg id="Vision" xmlns="http://www.w3.org/2000/svg" xmlns:xlink="http://www.w3.org/1999/xlink" width="70" height="61.797" viewBox="0 0 70 61.797">
  <defs>
    <linearGradient id="linear-gradient" x1="0.5" x2="0.5" y2="1" gradientUnits="objectBoundingBox">
      <stop offset="0" stop-color="#3a6bff"/>
      <stop offset="1" stop-color="#04c5fa"/>
    </linearGradient>
  </defs>
  <path id="Path_98043" data-name="Path 98043" d="M69.49,136A61.649,61.649,0,0,0,59.479,127.3c-16.222-11.406-32.083-11.863-48.956,0A61.65,61.65,0,0,0,.512,136a2.051,2.051,0,0,0,0,2.709,61.645,61.645,0,0,0,10.011,8.708c16.222,11.406,32.083,11.864,48.956,0a61.66,61.66,0,0,0,10.011-8.708A2.051,2.051,0,0,0,69.49,136ZM49.9,137.359A14.9,14.9,0,1,1,35,122.641,14.825,14.825,0,0,1,49.9,137.359Zm-45.008,0A58.484,58.484,0,0,1,19.3,126.775a18.633,18.633,0,0,0,0,21.17A58.5,58.5,0,0,1,4.888,137.359ZM50.7,147.944a18.633,18.633,0,0,0,0-21.17,58.5,58.5,0,0,1,14.414,10.585A58.488,58.488,0,0,1,50.7,147.944Z" transform="translate(-0.001 -106.461)" fill="url(#linear-gradient)"/>
  <path id="Path_98044" data-name="Path 98044" d="M193.5,215.1h1.2l-3.252,3.252L188.8,215.7a2.051,2.051,0,0,0-2.9,0l-4.066,4.067a2.051,2.051,0,0,0,2.9,2.9l2.616-2.616L190,222.7a2.051,2.051,0,0,0,2.9,0l4.7-4.7v.518a2.051,2.051,0,0,0,4.1,0v-5.469A2.051,2.051,0,0,0,199.657,211H193.5a2.051,2.051,0,0,0,0,4.1Z" transform="translate(-156.454 -186.254)" fill="url(#linear-gradient)"/>
  <path id="Path_98045" data-name="Path 98045" d="M243.051,38.2a2.051,2.051,0,0,0,2.051-2.051v-4.1a2.051,2.051,0,0,0-4.1,0v4.1A2.051,2.051,0,0,0,243.051,38.2Z" transform="translate(-208.051 -30)" fill="url(#linear-gradient)"/>
  <path id="Path_98046" data-name="Path 98046" d="M347.523,69.665a2.051,2.051,0,0,0,2.8-.751l2.051-3.552a2.051,2.051,0,0,0-3.552-2.051l-2.051,3.552A2.051,2.051,0,0,0,347.523,69.665Z" transform="translate(-299.125 -57.872)" fill="url(#linear-gradient)"/>
  <path id="Path_98047" data-name="Path 98047" d="M243.051,421A2.051,2.051,0,0,0,241,423.051v4.238a2.051,2.051,0,1,0,4.1,0v-4.238A2.051,2.051,0,0,0,243.051,421Z" transform="translate(-208.051 -367.543)" fill="url(#linear-gradient)"/>
  <path id="Path_98048" data-name="Path 98048" d="M349.824,393.888a2.051,2.051,0,0,0-3.552,2.051l2.119,3.67a2.051,2.051,0,0,0,3.552-2.051Z" transform="translate(-298.693 -343.252)" fill="url(#linear-gradient)"/>
  <path id="Path_98049" data-name="Path 98049" d="M122.823,68.915a2.051,2.051,0,0,0,3.552-2.051l-2.051-3.552a2.051,2.051,0,0,0-3.552,2.051Z" transform="translate(-104.023 -57.872)" fill="url(#linear-gradient)"/>
  <path id="Path_98050" data-name="Path 98050" d="M125.693,393.137a2.05,2.05,0,0,0-2.8.751l-2.119,3.671a2.051,2.051,0,1,0,3.552,2.051l2.119-3.67A2.051,2.051,0,0,0,125.693,393.137Z" transform="translate(-104.023 -343.252)" fill="url(#linear-gradient)"/>
</svg>
