<?xml version="1.0" encoding="utf-8"?>
<!-- Generator: Adobe Illustrator 29.6.1, SVG Export Plug-In . SVG Version: 9.03 Build 0)  -->
<svg version="1.1" id="Layer_1" xmlns="http://www.w3.org/2000/svg" xmlns:xlink="http://www.w3.org/1999/xlink" x="0px" y="0px"
	 viewBox="0 0 1920 1080" enable-background="new 0 0 1920 1080" xml:space="preserve">
<g>
	<rect x="-4.9" width="1929.8" height="1080"/>
</g>
<g>
	<defs>
		<rect id="SVGID_1_" x="-4.9" width="1929.8" height="1080"/>
	</defs>
	<clipPath id="SVGID_00000034050312817594343780000014918834409094378639_">
		<use xlink:href="#SVGID_1_"  overflow="visible"/>
	</clipPath>
	<g clip-path="url(#SVGID_00000034050312817594343780000014918834409094378639_)">
		<defs>
			<rect id="SVGID_00000148622962947016117880000002588956771207117234_" x="-4.9" width="1929.8" height="1080"/>
		</defs>
		<clipPath id="SVGID_00000010283685394464845290000011649291449029299389_">
			<use xlink:href="#SVGID_00000148622962947016117880000002588956771207117234_"  overflow="visible"/>
		</clipPath>
		<g clip-path="url(#SVGID_00000010283685394464845290000011649291449029299389_)">
			
				<radialGradient id="SVGID_00000087375120372807969180000014832855605883570049_" cx="7073.8999" cy="-4449.4688" r="682.0004" gradientTransform="matrix(4.559800e-11 -1.0156 -1.0156 -4.559800e-11 -3304.7422 6766.2622)" gradientUnits="userSpaceOnUse">
				<stop  offset="0" style="stop-color:#00FFFF"/>
				<stop  offset="1" style="stop-color:#00FFFF;stop-opacity:0"/>
			</radialGradient>
			<circle fill="url(#SVGID_00000087375120372807969180000014832855605883570049_)" cx="1214.2" cy="-418" r="692.6"/>
			
				<radialGradient id="SVGID_00000142875066985123109310000001546018246028727940_" cx="5156.0576" cy="-3308.1499" r="736.7426" gradientTransform="matrix(4.489700e-11 -1 -1 -4.489700e-11 -3241.3328 6658.4023)" gradientUnits="userSpaceOnUse">
				<stop  offset="0" style="stop-color:#FF00C6"/>
				<stop  offset="1" style="stop-color:#FF00C6;stop-opacity:0"/>
			</radialGradient>
			<circle fill="url(#SVGID_00000142875066985123109310000001546018246028727940_)" cx="66.8" cy="1502.3" r="736.7"/>
			
				<radialGradient id="SVGID_00000170979447735910767130000008970371069347097015_" cx="5564.4302" cy="-5587.5708" r="946.5179" gradientTransform="matrix(4.517128e-11 -1.0061 -1.0061 -4.517128e-11 -3273.0493 6692.0508)" gradientUnits="userSpaceOnUse">
				<stop  offset="0" style="stop-color:#FF9D00"/>
				<stop  offset="1" style="stop-color:#FF9D00;stop-opacity:0"/>
			</radialGradient>
			<circle fill="url(#SVGID_00000170979447735910767130000008970371069347097015_)" cx="2348.6" cy="1093.7" r="952.3"/>
		</g>
	</g>
</g>
<g>
	<g>
		<path fill="#FFB600" d="M420.7,655.7v-34.2h-12.2v-8.2h34v8.2h-12.7v34.2H420.7z"/>
		<path fill="#FFB600" d="M450.6,655.7V611h8.5v19.3l-1.7,0.7c0.4-1.5,1.2-2.8,2.4-4c1.2-1.2,2.6-2.1,4.2-2.9c1.6-0.7,3.3-1.1,5-1.1
			c2.4,0,4.4,0.5,6.1,1.5c1.6,1,2.9,2.4,3.7,4.4c0.8,2,1.2,4.4,1.2,7.3v19.5h-8.6v-18.9c0-1.5-0.2-2.7-0.6-3.6c-0.4-1-1-1.7-1.8-2.1
			c-0.8-0.4-1.8-0.6-3.1-0.6c-1,0-1.9,0.2-2.7,0.5c-0.8,0.3-1.5,0.7-2.1,1.3c-0.6,0.6-1.1,1.2-1.4,1.9c-0.3,0.7-0.5,1.5-0.5,2.4
			v19.2h-4.3c-0.9,0-1.7,0-2.4,0S451.1,655.7,450.6,655.7z"/>
		<path fill="#FFB600" d="M505.1,656.4c-3.5,0-6.5-0.7-9.1-2.1c-2.6-1.4-4.6-3.3-6-5.8c-1.4-2.5-2.1-5.3-2.1-8.4
			c0-2.5,0.4-4.8,1.2-6.9c0.8-2.1,1.9-3.9,3.4-5.3c1.5-1.5,3.2-2.7,5.2-3.5c2-0.8,4.2-1.2,6.6-1.2c2.2,0,4.2,0.4,6,1.2
			c1.8,0.8,3.4,1.9,4.8,3.3c1.3,1.4,2.4,3.1,3.1,5c0.7,1.9,1.1,4.1,1,6.3l-0.1,2.7h-25.7l-1.4-5.3h20l-1,1.1v-1.3
			c-0.1-1.1-0.4-2.1-1.1-3c-0.6-0.8-1.4-1.5-2.4-2c-1-0.5-2-0.8-3.2-0.8c-1.8,0-3.3,0.4-4.6,1.1c-1.2,0.7-2.2,1.7-2.8,3
			c-0.6,1.3-0.9,2.9-0.9,4.9c0,1.9,0.4,3.6,1.2,5c0.8,1.4,2,2.5,3.5,3.3c1.5,0.8,3.3,1.1,5.4,1.1c1.4,0,2.7-0.2,3.9-0.7
			c1.2-0.4,2.4-1.2,3.8-2.3l4.1,5.7c-1.1,1-2.4,1.9-3.8,2.6c-1.4,0.7-2.9,1.3-4.4,1.6C508.1,656.2,506.6,656.4,505.1,656.4z"/>
		<path fill="#FFB600" d="M547.6,669v-45.3h8.3l0.3,7.1l-1.6-0.5c0.2-1.2,0.9-2.4,2-3.5c1.1-1.1,2.5-2,4.1-2.7c1.7-0.7,3.4-1,5.2-1
			c2.8,0,5.2,0.7,7.4,2.1c2.2,1.4,3.9,3.4,5.1,5.9c1.2,2.5,1.9,5.4,1.9,8.6c0,3.1-0.6,6-1.9,8.5c-1.2,2.5-3,4.5-5.1,5.9
			c-2.2,1.4-4.6,2.1-7.4,2.1c-1.9,0-3.6-0.4-5.3-1.1c-1.7-0.7-3.1-1.7-4.3-2.8c-1.2-1.1-1.9-2.4-2.2-3.7l2-0.8V669H547.6z
			 M564,648.9c1.6,0,3-0.4,4.2-1.1c1.2-0.8,2.1-1.8,2.8-3.2c0.7-1.4,1-3,1-4.7c0-1.8-0.3-3.4-1-4.8c-0.7-1.4-1.6-2.5-2.8-3.2
			c-1.2-0.8-2.6-1.1-4.2-1.1c-1.6,0-3,0.4-4.2,1.1c-1.2,0.8-2.2,1.8-2.8,3.2c-0.7,1.4-1,3-1,4.8c0,1.8,0.3,3.4,1,4.7
			c0.7,1.4,1.6,2.5,2.8,3.2C561,648.5,562.4,648.9,564,648.9z"/>
		<path fill="#FFB600" d="M597.6,656.4c-2,0-3.8-0.4-5.5-1.2c-1.6-0.8-2.9-1.9-3.9-3.4c-0.9-1.4-1.4-3.1-1.4-5
			c0-1.7,0.3-3.1,0.9-4.4c0.6-1.3,1.5-2.3,2.7-3.1c1.2-0.8,2.7-1.5,4.5-1.9c1.8-0.4,3.9-0.7,6.3-0.7h9.4l-0.5,5.7h-9
			c-1,0-1.8,0.1-2.6,0.2c-0.7,0.2-1.4,0.4-1.9,0.8c-0.5,0.4-0.9,0.8-1.1,1.3c-0.3,0.5-0.4,1-0.4,1.7c0,0.7,0.2,1.3,0.5,1.8
			c0.4,0.5,0.9,0.9,1.5,1.2c0.6,0.3,1.3,0.4,2.1,0.4c1.2,0,2.3-0.2,3.4-0.6c1.1-0.4,2-1,2.9-1.7c0.8-0.7,1.5-1.6,2-2.5l1.6,4.3
			c-0.8,1.4-1.9,2.6-3.1,3.6c-1.2,1-2.5,1.9-3.9,2.5C600.6,656,599.1,656.4,597.6,656.4z M606.3,655.7v-20c0-1.7-0.5-3-1.5-3.9
			s-2.4-1.4-4.1-1.4c-1.7,0-3.1,0.3-4.4,1c-1.3,0.6-2.5,1.7-3.6,3l-5.3-5.1c1.9-2,4.1-3.6,6.5-4.7c2.4-1.1,5-1.6,7.8-1.6
			c2.6,0,4.8,0.4,6.7,1.2c1.9,0.8,3.4,2,4.4,3.6c1,1.6,1.6,3.6,1.6,6.1v21.7H606.3z"/>
		<path fill="#FFB600" d="M638.6,669.7c-2.5,0-5-0.4-7.5-1.1c-2.5-0.7-4.5-1.7-6-2.9l3-6.2c1.3,0.9,2.8,1.6,4.4,2.1
			c1.7,0.5,3.4,0.8,5.2,0.8c2.1,0,3.9-0.3,5.2-1c1.3-0.6,2.4-1.6,3-2.9c0.7-1.3,1-2.9,1-4.8v-5.6l1.5,0.4c-0.2,1.2-0.9,2.4-2,3.5
			c-1.1,1.1-2.5,2-4.1,2.7c-1.6,0.7-3.3,1-5.1,1c-2.9,0-5.6-0.7-7.9-2.1c-2.3-1.4-4.1-3.3-5.5-5.7c-1.3-2.4-2-5.2-2-8.3
			c0-3.2,0.7-6.1,2-8.6c1.3-2.5,3.1-4.5,5.4-5.9c2.3-1.4,4.8-2.1,7.7-2.1c1.2,0,2.4,0.1,3.5,0.4c1.1,0.3,2.1,0.7,3.1,1.2
			c0.9,0.5,1.8,1.1,2.6,1.7c0.8,0.6,1.4,1.3,1.9,2s0.8,1.5,0.9,2.2l-1.8,0.5l0.2-7.3h8.3v29.6c0,2.6-0.4,4.9-1.2,6.9
			c-0.8,2-1.9,3.7-3.4,5.1c-1.5,1.4-3.3,2.4-5.4,3.2C643.6,669.3,641.2,669.7,638.6,669.7z M638.8,648.9c1.7,0,3.2-0.4,4.4-1.1
			c1.3-0.8,2.3-1.8,3-3.2c0.7-1.4,1.1-3,1.1-4.8c0-1.9-0.4-3.5-1.1-4.8c-0.7-1.4-1.7-2.4-3-3.2c-1.3-0.8-2.8-1.2-4.4-1.2
			c-1.7,0-3.1,0.4-4.4,1.2c-1.2,0.8-2.2,1.9-2.9,3.2c-0.7,1.4-1.1,3-1.1,4.8s0.4,3.4,1.1,4.8c0.7,1.4,1.7,2.5,2.9,3.2
			C635.7,648.5,637.2,648.9,638.8,648.9z"/>
		<path fill="#FFB600" d="M681.1,656.4c-3.5,0-6.5-0.7-9.1-2.1c-2.6-1.4-4.6-3.3-6-5.8c-1.4-2.5-2.1-5.3-2.1-8.4
			c0-2.5,0.4-4.8,1.2-6.9c0.8-2.1,1.9-3.9,3.4-5.3c1.5-1.5,3.2-2.7,5.2-3.5c2-0.8,4.2-1.2,6.6-1.2c2.2,0,4.2,0.4,6,1.2
			c1.8,0.8,3.4,1.9,4.8,3.3c1.3,1.4,2.4,3.1,3.1,5c0.7,1.9,1.1,4.1,1,6.3l-0.1,2.7h-25.7l-1.4-5.3h20l-1,1.1v-1.3
			c-0.1-1.1-0.4-2.1-1.1-3c-0.6-0.8-1.4-1.5-2.4-2c-1-0.5-2-0.8-3.2-0.8c-1.8,0-3.3,0.4-4.6,1.1c-1.2,0.7-2.2,1.7-2.8,3
			c-0.6,1.3-0.9,2.9-0.9,4.9c0,1.9,0.4,3.6,1.2,5c0.8,1.4,2,2.5,3.5,3.3c1.5,0.8,3.3,1.1,5.4,1.1c1.4,0,2.7-0.2,3.9-0.7
			c1.2-0.4,2.4-1.2,3.8-2.3l4.1,5.7c-1.1,1-2.4,1.9-3.8,2.6c-1.4,0.7-2.9,1.3-4.4,1.6C684,656.2,682.6,656.4,681.1,656.4z"/>
		<path fill="#FFB600" d="M730.8,655.7l-10.6-32h8.9l6.5,21.7l-1.3-0.2l7.3-16.9h5l7.6,17l-1.5,0.1l6.5-21.7h8.9l-10.8,32h-6.2
			l-7.6-18.2l1,0.2l-7.4,18H730.8z"/>
		<path fill="#FFB600" d="M784,656.4c-2,0-3.8-0.4-5.5-1.2c-1.6-0.8-2.9-1.9-3.9-3.4c-0.9-1.4-1.4-3.1-1.4-5c0-1.7,0.3-3.1,0.9-4.4
			c0.6-1.3,1.5-2.3,2.7-3.1c1.2-0.8,2.7-1.5,4.5-1.9c1.8-0.4,3.9-0.7,6.3-0.7h9.4l-0.5,5.7h-9c-1,0-1.8,0.1-2.6,0.2
			c-0.7,0.2-1.4,0.4-1.9,0.8c-0.5,0.4-0.9,0.8-1.1,1.3c-0.3,0.5-0.4,1-0.4,1.7c0,0.7,0.2,1.3,0.5,1.8c0.4,0.5,0.9,0.9,1.5,1.2
			c0.6,0.3,1.3,0.4,2.1,0.4c1.2,0,2.3-0.2,3.4-0.6c1.1-0.4,2-1,2.9-1.7c0.8-0.7,1.5-1.6,2-2.5l1.6,4.3c-0.8,1.4-1.9,2.6-3.1,3.6
			c-1.2,1-2.5,1.9-3.9,2.5C787.1,656,785.6,656.4,784,656.4z M792.8,655.7v-20c0-1.7-0.5-3-1.5-3.9s-2.4-1.4-4.1-1.4
			c-1.7,0-3.1,0.3-4.4,1c-1.3,0.6-2.5,1.7-3.6,3l-5.3-5.1c1.9-2,4.1-3.6,6.5-4.7c2.4-1.1,5-1.6,7.8-1.6c2.6,0,4.8,0.4,6.7,1.2
			c1.9,0.8,3.4,2,4.4,3.6c1,1.6,1.6,3.6,1.6,6.1v21.7H792.8z"/>
		<path fill="#FFB600" d="M821.2,656.4c-2.9,0-5.6-0.5-7.9-1.5c-2.3-1-4.2-2.3-5.7-4.1l5.4-4.6c1.2,1.3,2.6,2.3,4.1,2.9
			c1.5,0.6,3.1,0.9,4.6,0.9c0.6,0,1.1-0.1,1.6-0.2c0.5-0.1,0.9-0.3,1.3-0.6c0.4-0.3,0.6-0.6,0.8-0.9c0.2-0.4,0.3-0.8,0.3-1.3
			c0-0.9-0.4-1.6-1.1-2.1c-0.3-0.2-0.9-0.5-1.8-0.8c-0.9-0.3-2-0.6-3.3-1c-2.1-0.5-3.8-1.1-5.2-1.8c-1.4-0.7-2.6-1.5-3.4-2.4
			c-0.7-0.8-1.3-1.7-1.7-2.7c-0.4-1-0.6-2.1-0.6-3.3c0-1.9,0.6-3.6,1.7-5.1c1.1-1.5,2.6-2.6,4.5-3.4c1.9-0.8,3.9-1.2,6.1-1.2
			c1.7,0,3.3,0.2,4.8,0.6c1.6,0.4,3,1,4.4,1.7c1.3,0.7,2.5,1.6,3.5,2.6l-4.6,5.1c-0.7-0.7-1.6-1.4-2.5-1.9c-0.9-0.5-1.9-1-2.8-1.3
			c-0.9-0.3-1.8-0.5-2.5-0.5c-0.7,0-1.3,0.1-1.8,0.2c-0.5,0.1-1,0.3-1.4,0.6c-0.4,0.3-0.6,0.6-0.8,0.9c-0.2,0.4-0.3,0.8-0.3,1.2
			c0,0.4,0.1,0.9,0.3,1.2c0.2,0.4,0.5,0.7,0.9,1.1c0.4,0.2,1.1,0.5,2,0.8s2.1,0.7,3.5,1.1c1.9,0.5,3.6,1.1,4.9,1.8
			c1.3,0.6,2.4,1.4,3.2,2.2c0.7,0.7,1.2,1.6,1.5,2.5c0.3,0.9,0.5,2,0.5,3.1c0,2-0.6,3.7-1.7,5.3c-1.1,1.6-2.6,2.8-4.5,3.6
			C825.8,655.9,823.6,656.4,821.2,656.4z"/>
		<path fill="#FFB600" d="M859.3,631.4v-7.7h21.2v7.7H859.3z M865.3,655.7v-40.1h8.6v40.1H865.3z"/>
		<path fill="#FFB600" d="M902.6,656.4c-3.2,0-6.1-0.7-8.7-2.1c-2.6-1.4-4.6-3.4-6-5.9c-1.5-2.5-2.2-5.3-2.2-8.5
			c0-3.2,0.7-6.1,2.2-8.6c1.5-2.5,3.5-4.5,6-5.9c2.6-1.4,5.5-2.1,8.7-2.1c3.3,0,6.2,0.7,8.7,2.1c2.5,1.4,4.5,3.4,6,5.9
			c1.5,2.5,2.2,5.4,2.2,8.6c0,3.2-0.7,6-2.2,8.5c-1.5,2.5-3.5,4.5-6,5.9C908.8,655.6,905.9,656.4,902.6,656.4z M902.6,648.9
			c1.6,0,3-0.4,4.2-1.2c1.2-0.8,2.2-1.9,2.9-3.3c0.7-1.4,1-2.9,1-4.7c0-1.8-0.3-3.4-1-4.8c-0.7-1.4-1.7-2.5-2.9-3.3
			c-1.2-0.8-2.7-1.2-4.2-1.2c-1.6,0-3,0.4-4.3,1.2c-1.3,0.8-2.3,1.9-3,3.3c-0.7,1.4-1,3-1,4.8c0,1.7,0.3,3.3,1,4.7
			c0.7,1.4,1.7,2.5,3,3.3C899.6,648.5,901.1,648.9,902.6,648.9z"/>
		<path fill="#FFB600" d="M942.7,656.4c-3.2,0-6.1-0.7-8.7-2.1c-2.6-1.4-4.6-3.4-6-5.9c-1.5-2.5-2.2-5.3-2.2-8.5
			c0-3.2,0.7-6.1,2.2-8.6c1.5-2.5,3.5-4.5,6-5.9c2.6-1.4,5.5-2.1,8.7-2.1c3.3,0,6.2,0.7,8.7,2.1c2.5,1.4,4.5,3.4,6,5.9
			c1.5,2.5,2.2,5.4,2.2,8.6c0,3.2-0.7,6-2.2,8.5c-1.5,2.5-3.5,4.5-6,5.9C948.8,655.6,945.9,656.4,942.7,656.4z M942.7,648.9
			c1.6,0,3-0.4,4.2-1.2c1.2-0.8,2.2-1.9,2.9-3.3c0.7-1.4,1-2.9,1-4.7c0-1.8-0.3-3.4-1-4.8c-0.7-1.4-1.7-2.5-2.9-3.3
			c-1.2-0.8-2.7-1.2-4.2-1.2c-1.6,0-3,0.4-4.3,1.2c-1.3,0.8-2.3,1.9-3,3.3c-0.7,1.4-1,3-1,4.8c0,1.7,0.3,3.3,1,4.7
			c0.7,1.4,1.7,2.5,3,3.3C939.7,648.5,941.1,648.9,942.7,648.9z"/>
		<path fill="#FFB600" d="M1002.1,656.4c-3.1,0-5.8-0.7-8.2-2.2c-2.4-1.5-4.3-3.4-5.7-6c-1.4-2.5-2.1-5.3-2.1-8.4
			c0-3.2,0.7-6,2.1-8.6c1.4-2.5,3.3-4.5,5.7-6c2.4-1.5,5.2-2.2,8.2-2.2c2.9,0,5.5,0.5,7.8,1.6c2.4,1.1,4.2,2.5,5.5,4.4l-4.7,5.7
			c-0.6-0.8-1.3-1.5-2.1-2.1c-0.8-0.6-1.8-1.1-2.8-1.5c-1-0.4-2-0.5-3.1-0.5c-1.7,0-3.1,0.4-4.4,1.2c-1.3,0.8-2.3,1.9-3,3.3
			c-0.7,1.4-1.1,3-1.1,4.7c0,1.7,0.4,3.2,1.1,4.6c0.8,1.4,1.8,2.5,3.1,3.3c1.3,0.8,2.7,1.2,4.3,1.2c1,0,2-0.2,3-0.5
			c0.9-0.3,1.8-0.8,2.6-1.4c0.8-0.6,1.6-1.3,2.3-2.1l4.7,5.7c-1.3,1.7-3.2,3.1-5.7,4.2C1007.3,655.8,1004.8,656.4,1002.1,656.4z"/>
		<path fill="#FFB600" d="M1022.8,655.7v-32h8.3l0.3,10.3l-1.5-2.2c0.5-1.6,1.3-3.1,2.4-4.4c1.1-1.3,2.3-2.4,3.8-3.2
			c1.5-0.8,3-1.2,4.6-1.2c0.7,0,1.4,0.1,2,0.2c0.6,0.1,1.2,0.3,1.6,0.5l-2.3,9.4c-0.4-0.2-1-0.4-1.7-0.6c-0.7-0.2-1.4-0.3-2.1-0.3
			c-0.9,0-1.8,0.2-2.6,0.5c-0.8,0.3-1.6,0.8-2.2,1.5c-0.6,0.6-1.1,1.4-1.5,2.2c-0.3,0.8-0.5,1.8-0.5,2.8v16.5H1022.8z"/>
		<path fill="#FFB600" d="M1066.2,656.4c-3.5,0-6.5-0.7-9.1-2.1c-2.6-1.4-4.6-3.3-6-5.8c-1.4-2.5-2.1-5.3-2.1-8.4
			c0-2.5,0.4-4.8,1.2-6.9c0.8-2.1,1.9-3.9,3.4-5.3s3.2-2.7,5.2-3.5c2-0.8,4.2-1.2,6.6-1.2c2.2,0,4.2,0.4,6,1.2
			c1.8,0.8,3.4,1.9,4.8,3.3c1.4,1.4,2.4,3.1,3.1,5c0.7,1.9,1.1,4.1,1,6.3l-0.1,2.7h-25.7l-1.4-5.3h20l-1,1.1v-1.3
			c-0.1-1.1-0.4-2.1-1.1-3c-0.6-0.8-1.4-1.5-2.4-2c-1-0.5-2-0.8-3.2-0.8c-1.8,0-3.3,0.4-4.6,1.1c-1.2,0.7-2.2,1.7-2.8,3
			c-0.6,1.3-0.9,2.9-0.9,4.9c0,1.9,0.4,3.6,1.2,5c0.8,1.4,2,2.5,3.5,3.3s3.3,1.1,5.3,1.1c1.4,0,2.7-0.2,3.9-0.7
			c1.2-0.4,2.4-1.2,3.8-2.3l4.1,5.7c-1.1,1-2.4,1.9-3.8,2.6c-1.4,0.7-2.9,1.3-4.4,1.6C1069.2,656.2,1067.7,656.4,1066.2,656.4z"/>
		<path fill="#FFB600" d="M1097.3,656.4c-2,0-3.8-0.4-5.5-1.2c-1.6-0.8-2.9-1.9-3.9-3.4c-0.9-1.4-1.4-3.1-1.4-5
			c0-1.7,0.3-3.1,0.9-4.4c0.6-1.3,1.5-2.3,2.7-3.1c1.2-0.8,2.7-1.5,4.5-1.9c1.8-0.4,3.9-0.7,6.3-0.7h9.4l-0.5,5.7h-9
			c-1,0-1.8,0.1-2.6,0.2c-0.7,0.2-1.4,0.4-1.9,0.8c-0.5,0.4-0.9,0.8-1.1,1.3c-0.3,0.5-0.4,1-0.4,1.7c0,0.7,0.2,1.3,0.5,1.8
			c0.4,0.5,0.9,0.9,1.5,1.2c0.6,0.3,1.3,0.4,2.1,0.4c1.2,0,2.3-0.2,3.4-0.6c1.1-0.4,2-1,2.9-1.7c0.8-0.7,1.5-1.6,2-2.5l1.6,4.3
			c-0.8,1.4-1.9,2.6-3.1,3.6c-1.2,1-2.5,1.9-3.9,2.5C1100.4,656,1098.9,656.4,1097.3,656.4z M1106.1,655.7v-20c0-1.7-0.5-3-1.5-3.9
			c-1-0.9-2.4-1.4-4.1-1.4c-1.7,0-3.1,0.3-4.4,1c-1.3,0.6-2.5,1.7-3.6,3l-5.3-5.1c1.9-2,4.1-3.6,6.5-4.7c2.4-1.1,5-1.6,7.8-1.6
			c2.6,0,4.8,0.4,6.7,1.2c1.9,0.8,3.4,2,4.4,3.6c1,1.6,1.6,3.6,1.6,6.1v21.7H1106.1z"/>
		<path fill="#FFB600" d="M1120.8,631.4v-7.7h21.2v7.7H1120.8z M1126.8,655.7v-40.1h8.6v40.1H1126.8z"/>
		<path fill="#FFB600" d="M1154.3,617.2c-1.7,0-2.9-0.4-3.9-1.2c-0.9-0.8-1.4-2-1.4-3.4c0-1.4,0.5-2.5,1.4-3.4
			c0.9-0.9,2.2-1.3,3.9-1.3c1.6,0,2.9,0.4,3.8,1.2c0.9,0.8,1.4,2,1.4,3.4c0,1.4-0.5,2.5-1.4,3.4
			C1157.2,616.8,1156,617.2,1154.3,617.2z M1150.1,655.7v-32h8.6v32H1150.1z"/>
		<path fill="#FFB600" d="M1179.8,655.7l-13.4-32h9.4l8.5,23.8l-1.9,0.4l8.9-24.1h9.2l-14.1,32H1179.8z"/>
		<path fill="#FFB600" d="M1222.7,656.4c-3.5,0-6.5-0.7-9.1-2.1c-2.6-1.4-4.6-3.3-6-5.8c-1.4-2.5-2.1-5.3-2.1-8.4
			c0-2.5,0.4-4.8,1.2-6.9c0.8-2.1,1.9-3.9,3.4-5.3s3.2-2.7,5.2-3.5c2-0.8,4.2-1.2,6.6-1.2c2.2,0,4.2,0.4,6,1.2
			c1.8,0.8,3.4,1.9,4.8,3.3c1.4,1.4,2.4,3.1,3.1,5c0.7,1.9,1.1,4.1,1,6.3l-0.1,2.7h-25.7l-1.4-5.3h20l-1,1.1v-1.3
			c-0.1-1.1-0.4-2.1-1.1-3c-0.6-0.8-1.4-1.5-2.4-2c-1-0.5-2-0.8-3.2-0.8c-1.8,0-3.3,0.4-4.6,1.1c-1.2,0.7-2.2,1.7-2.8,3
			c-0.6,1.3-0.9,2.9-0.9,4.9c0,1.9,0.4,3.6,1.2,5c0.8,1.4,2,2.5,3.5,3.3s3.3,1.1,5.3,1.1c1.4,0,2.7-0.2,3.9-0.7
			c1.2-0.4,2.4-1.2,3.8-2.3l4.1,5.7c-1.1,1-2.4,1.9-3.8,2.6c-1.4,0.7-2.9,1.3-4.4,1.6C1225.7,656.2,1224.2,656.4,1222.7,656.4z"/>
		<path fill="#FFB600" d="M1262.3,631.4v-7.7h21.2v7.7H1262.3z M1268.3,655.7v-40.1h8.6v40.1H1268.3z"/>
		<path fill="#FFB600" d="M1305.6,656.4c-3.2,0-6.1-0.7-8.7-2.1c-2.6-1.4-4.6-3.4-6-5.9c-1.5-2.5-2.2-5.3-2.2-8.5
			c0-3.2,0.7-6.1,2.2-8.6c1.5-2.5,3.5-4.5,6-5.9c2.6-1.4,5.5-2.1,8.7-2.1c3.3,0,6.2,0.7,8.7,2.1c2.5,1.4,4.5,3.4,6,5.9
			c1.5,2.5,2.2,5.4,2.2,8.6c0,3.2-0.7,6-2.2,8.5c-1.5,2.5-3.5,4.5-6,5.9C1311.8,655.6,1308.9,656.4,1305.6,656.4z M1305.6,648.9
			c1.6,0,3-0.4,4.2-1.2c1.2-0.8,2.2-1.9,2.9-3.3c0.7-1.4,1-2.9,1-4.7c0-1.8-0.3-3.4-1-4.8c-0.7-1.4-1.7-2.5-2.9-3.3
			c-1.2-0.8-2.7-1.2-4.2-1.2c-1.6,0-3,0.4-4.3,1.2c-1.3,0.8-2.3,1.9-3,3.3c-0.7,1.4-1,3-1,4.8c0,1.7,0.3,3.3,1,4.7
			c0.7,1.4,1.7,2.5,3,3.3C1302.6,648.5,1304,648.9,1305.6,648.9z"/>
		<path fill="#FFB600" d="M1366.3,656.4c-3.5,0-6.5-0.7-9.1-2.1c-2.6-1.4-4.6-3.3-6-5.8c-1.4-2.5-2.1-5.3-2.1-8.4
			c0-2.5,0.4-4.8,1.2-6.9c0.8-2.1,1.9-3.9,3.4-5.3c1.5-1.5,3.2-2.7,5.2-3.5c2-0.8,4.2-1.2,6.6-1.2c2.2,0,4.2,0.4,6,1.2
			c1.8,0.8,3.4,1.9,4.8,3.3c1.4,1.4,2.4,3.1,3.1,5c0.7,1.9,1.1,4.1,1,6.3l-0.1,2.7h-25.7l-1.4-5.3h20l-1,1.1v-1.3
			c-0.1-1.1-0.4-2.1-1.1-3c-0.6-0.8-1.4-1.5-2.4-2c-1-0.5-2-0.8-3.2-0.8c-1.8,0-3.3,0.4-4.6,1.1c-1.2,0.7-2.2,1.7-2.8,3
			c-0.6,1.3-0.9,2.9-0.9,4.9c0,1.9,0.4,3.6,1.2,5c0.8,1.4,2,2.5,3.5,3.3s3.3,1.1,5.3,1.1c1.4,0,2.7-0.2,3.9-0.7
			c1.2-0.4,2.4-1.2,3.8-2.3l4.1,5.7c-1.1,1-2.4,1.9-3.8,2.6c-1.4,0.7-2.9,1.3-4.4,1.6C1369.3,656.2,1367.8,656.4,1366.3,656.4z"/>
		<path fill="#FFB600" d="M1385.2,655.7l12.8-17.4l4.7,5.6l-7.4,11.8H1385.2z M1408.7,655.7l-8-11.4l-2.4-3.3l-12.9-17.3h10.4
			l7.8,11l2.6,3.6l12.8,17.4H1408.7z M1405.9,641.3l-4.6-5.6l6.8-12h10L1405.9,641.3z"/>
		<path fill="#FFB600" d="M1431,617.2c-1.7,0-2.9-0.4-3.9-1.2c-0.9-0.8-1.4-2-1.4-3.4c0-1.4,0.5-2.5,1.4-3.4
			c0.9-0.9,2.2-1.3,3.9-1.3c1.6,0,2.9,0.4,3.8,1.2c0.9,0.8,1.4,2,1.4,3.4c0,1.4-0.5,2.5-1.4,3.4
			C1433.9,616.8,1432.7,617.2,1431,617.2z M1426.8,655.7v-32h8.6v32H1426.8z"/>
		<path fill="#FFB600" d="M1457.2,656.4c-2.9,0-5.6-0.5-7.9-1.5c-2.3-1-4.2-2.3-5.7-4.1l5.4-4.6c1.2,1.3,2.6,2.3,4.1,2.9
			c1.5,0.6,3.1,0.9,4.6,0.9c0.6,0,1.1-0.1,1.6-0.2c0.5-0.1,0.9-0.3,1.3-0.6c0.4-0.3,0.6-0.6,0.8-0.9c0.2-0.4,0.3-0.8,0.3-1.3
			c0-0.9-0.4-1.6-1.1-2.1c-0.3-0.2-0.9-0.5-1.8-0.8c-0.9-0.3-2-0.6-3.3-1c-2.1-0.5-3.8-1.1-5.2-1.8c-1.4-0.7-2.6-1.5-3.4-2.4
			c-0.7-0.8-1.3-1.7-1.7-2.7c-0.4-1-0.6-2.1-0.6-3.3c0-1.9,0.6-3.6,1.7-5.1s2.6-2.6,4.5-3.4c1.9-0.8,3.9-1.2,6.1-1.2
			c1.7,0,3.3,0.2,4.8,0.6c1.6,0.4,3,1,4.4,1.7c1.3,0.7,2.5,1.6,3.5,2.6l-4.6,5.1c-0.7-0.7-1.6-1.4-2.5-1.9c-0.9-0.5-1.9-1-2.8-1.3
			c-0.9-0.3-1.8-0.5-2.5-0.5c-0.7,0-1.3,0.1-1.8,0.2c-0.5,0.1-1,0.3-1.4,0.6c-0.4,0.3-0.6,0.6-0.8,0.9c-0.2,0.4-0.3,0.8-0.3,1.2
			c0,0.4,0.1,0.9,0.3,1.2c0.2,0.4,0.5,0.7,0.9,1.1c0.4,0.2,1.1,0.5,2,0.8s2.1,0.7,3.5,1.1c1.9,0.5,3.6,1.1,4.9,1.8
			c1.3,0.6,2.4,1.4,3.2,2.2c0.7,0.7,1.2,1.6,1.5,2.5c0.3,0.9,0.5,2,0.5,3.1c0,2-0.6,3.7-1.7,5.3c-1.1,1.6-2.6,2.8-4.5,3.6
			C1461.8,655.9,1459.6,656.4,1457.2,656.4z"/>
		<path fill="#FFB600" d="M1474.9,631.4v-7.7h21.2v7.7H1474.9z M1480.9,655.7v-40.1h8.6v40.1H1480.9z"/>
		<path fill="#FFB600" d="M1506.6,656.4c-1.5,0-2.7-0.4-3.6-1.3c-0.8-0.9-1.3-2.2-1.3-3.8c0-1.5,0.4-2.8,1.3-3.7
			c0.9-1,2.1-1.5,3.6-1.5c1.5,0,2.7,0.5,3.6,1.4s1.3,2.2,1.3,3.8c0,1.5-0.5,2.8-1.4,3.7C1509.3,655.9,1508.1,656.4,1506.6,656.4z"/>
	</g>
	<g>
		<g>
			<path fill="#FFFFFF" d="M1133,446.2h3.5c6,0,10,1,12.1,3.1c1.2,1.2,1.9,2.3,1.9,3.4v1.4c0,2.1-1.6,4.4-4.9,7
				c-0.7,0.6-1.7,1-3.1,1.2c-1.2-0.3-1.9-1-1.9-2c0-1.9,1.4-4,4.1-6.2c1.4-0.6,2-1.3,2-2c-2.5-1.5-6-2.2-10.7-2.2
				c-9.3,0-21.9,1.6-37.7,4.9l0.2,2.5c0,4.8-3,14.1-9,27.9c-3.2,8.6-6.3,17.4-9.2,26.5h0.2c8.2-1.7,16.8-4.6,26-8.6
				c4.8-2.4,7.6-3.5,8.4-3.5h0.2c0.8,0,1.4,0.4,1.9,1.2v0.4c0,2-2.9,4-8.7,5.9c-7.5,3.4-15.7,6-24.6,7.8c-3,0.2-4.5,0.6-4.5,1.1
				c-5.9,20-8.8,33.4-8.8,40.1c0,6,1.7,9,5.1,9l0.4-0.2h0.6c5.9,0,17.5-4.7,35-14.1c3.2-1.5,5.2-2.3,5.9-2.3h0.2
				c1.4,0,2.2,0.9,2.5,2.7c0,1.9-2.6,4-7.8,6.1c-6.9,3.9-16.5,8-28.7,12.3c-3.8,1.1-6.8,1.7-8.8,1.7h-1.2c-2.8,0-5-1.9-6.7-5.7
				c-0.7-2-1.1-4-1.1-5.9v-0.6c0-8.9,2.9-23.3,8.6-43.2h-2.3c-11.3,0-18.8-3.8-22.7-11.5c-1.1-2.2-1.7-4.5-1.7-7v-1.9
				c0-10.3,7-20.9,21.1-31.7c7.2-4.6,14.9-8.4,23.1-11.3C1107.2,448.4,1120.8,446.2,1133,446.2z M1050.7,497.5v0.4
				c0,7.9,5.3,12.8,16,14.7c0.8,0,1.9,0.1,3.5,0.2c3.7-0.1,5.6-0.3,5.6-0.8c7.1-22.6,13.3-41.3,18.8-56.1c-6,1.5-14.3,5.6-25,12.5
				c-9.2,6.6-15.4,15-18.4,25.1C1050.8,495.3,1050.7,496.6,1050.7,497.5z"/>
			<path fill="#FFFFFF" d="M1126.9,505c0.7,0,1.2,0.7,1.4,2.1c0,0.5-0.7,3.2-2.2,8c-0.1,0.2-0.2,0.4-0.2,0.7h0.2
				c1.6-1.8,2.9-2.6,3.7-2.6c0.7,0,2.2,1.5,4.5,4.5c0.9,0.9,1.9,1.3,2.9,1.3c1.5,0,3.4-1,5.9-3.1h0.3l0.2,0.3v0.2
				c0,1.7-1.9,3.3-5.7,4.9c-0.5,0.1-0.9,0.2-1.1,0.2h-0.7c-2.8,0-4.9-1.9-6.4-5.7c-1.9,0.9-4,4.2-6.3,10c-0.8,2.7-1.7,6.7-2.7,12
				c-0.3,0.8-0.8,1.5-1.6,2c-1.7-0.2-2.6-0.7-2.6-1.6v-0.4c0-1.5,0.9-4.4,2.6-8.7c1.4-7.3,2.7-13.3,3.8-18.1
				C1123.9,507,1125.2,505,1126.9,505z"/>
			<path fill="#FFFFFF" d="M1152,505c0.7,0,1.2,0.7,1.4,2.1c0,0.5-0.7,3.2-2.2,8c-0.1,0.2-0.2,0.4-0.2,0.7h0.2
				c1.6-1.8,2.9-2.6,3.7-2.6c0.7,0,2.2,1.5,4.5,4.5c0.9,0.9,1.9,1.3,2.9,1.3c1.5,0,3.4-1,5.9-3.1h0.3l0.2,0.3v0.2
				c0,1.7-1.9,3.3-5.7,4.9c-0.5,0.1-0.9,0.2-1.1,0.2h-0.7c-2.8,0-4.9-1.9-6.4-5.7c-1.9,0.9-4,4.2-6.3,10c-0.8,2.7-1.7,6.7-2.7,12
				c-0.3,0.8-0.8,1.5-1.6,2c-1.7-0.2-2.6-0.7-2.6-1.6v-0.4c0-1.5,0.9-4.4,2.6-8.7c1.4-7.3,2.7-13.3,3.8-18.1
				C1149,507,1150.4,505,1152,505z"/>
			<path fill="#FFFFFF" d="M1174.2,533.8c-2.4,0-3.5-1.4-3.5-4.2c0-1.8,0.3-3.6,0.9-5.3c0.1-0.2,0.2-0.4,0.3-0.6
				c0.1-0.2,0.2-0.8,0.5-1.6c0-0.3-0.1-0.6-0.3-1c-0.5-0.9-0.7-1.8-0.7-2.7c0-0.8,0.2-1.8,0.6-3.1c1.2-3.2,3.8-5.7,7.8-7.5
				c1.3-0.6,2.5-0.9,3.7-0.9c0.8,0,1.7,0.2,2.6,0.6c1.5,0.8,2.2,2.7,2.2,5.7c0,2.8-0.6,5.5-1.9,8.1c1.6,0,3.9-0.2,6.8-0.7
				c3-0.5,5.3-1.1,7.1-2c0.5-0.2,0.9-0.4,1.2-0.4c0.9,0,1.3,0.4,1.3,1.1c0,0.1-0.1,0.3-0.2,0.8c-0.1,0.5-2.9,1.4-8.3,2.6
				c-1.8,0.4-4.4,0.9-7.9,1.5c-1.2,0.2-2,0.6-2.4,1.1c-1.3,1.9-2.8,3.8-4.5,5.7C1178,532.8,1176.2,533.8,1174.2,533.8z
				 M1180.8,521.2l3.3-0.1c1.5-3,2.3-5.9,2.3-8.7c-0.1-2-1.2-3-3.4-3c-0.6,0-1.5,0.2-2.4,0.5c-1,0.3-2.2,1.3-3.7,2.9
				s-2.3,3.4-2.3,5.5l2.1-2.7c1.6-2.1,2.9-3.1,4-3.1c0.8,0,1.1,0.4,1.1,1.1c0,0.6-0.4,1.4-1.1,2.4c-0.4,0.3-0.6,0.4-0.9,0.4
				c-1,0-2.1,1.4-3.4,4.3C1177.7,521,1179.1,521.2,1180.8,521.2z M1175.8,529.5c0.7,0,1.7-0.6,2.9-1.7c1.2-1.1,2.2-2.2,2.8-3.3
				c-2.1,0-4.2-0.3-6.2-0.9c-0.5,1.3-0.7,2.6-0.7,3.9C1174.7,528.9,1175.1,529.5,1175.8,529.5z"/>
			<path fill="#FFFFFF" d="M1206.3,505c0.7,0,1.2,0.7,1.4,2.1c0,0.5-0.7,3.2-2.2,8c-0.1,0.2-0.2,0.4-0.2,0.7h0.2
				c1.6-1.8,2.9-2.6,3.7-2.6c0.7,0,2.2,1.5,4.5,4.5c0.9,0.9,1.9,1.3,2.9,1.3c1.5,0,3.4-1,5.9-3.1h0.3l0.2,0.3v0.2
				c0,1.7-1.9,3.3-5.7,4.9c-0.5,0.1-0.9,0.2-1.1,0.2h-0.7c-2.8,0-4.9-1.9-6.4-5.7c-1.9,0.9-4,4.2-6.3,10c-0.8,2.7-1.7,6.7-2.7,12
				c-0.3,0.8-0.8,1.5-1.6,2c-1.7-0.2-2.6-0.7-2.6-1.6v-0.4c0-1.5,0.9-4.4,2.6-8.7c1.4-7.3,2.7-13.3,3.8-18.1
				C1203.3,507,1204.7,505,1206.3,505z"/>
		</g>
		<g>
			<g>
				<g>
					<g>
						<path fill="#FFB600" d="M846.1,532.1C846.1,532.1,846.1,532.1,846.1,532.1c-9.1-0.6-16.4-3.6-21.8-8.8
							c-3.5-3.4-6-7.6-7.5-12.7c-1.2-4-1.7-8.4-1.6-13.3c0.2-8.1,2.2-14.5,2.3-14.7c0.2-0.5,0.6-1,1.2-1.1c0.6-0.1,1.1,0,1.5,0.4
							l46,45.4c0.4,0.4,0.6,1,0.4,1.6c-0.1,0.6-0.6,1-1.1,1.2C865.1,530.3,856.3,532.7,846.1,532.1z M819.8,486.3
							c-0.6,2.5-1.3,6.6-1.5,11.3c-0.3,10.1,2.5,18,8.1,23.4c4.8,4.6,11.5,7.3,19.8,7.9c6.4,0.4,12.2-0.5,15.5-1.1L819.8,486.3z"/>
						<path fill="#FFB600" d="M883.4,475c-0.4,0-0.7-0.2-1-0.4c-0.7-0.6-0.7-1.7-0.1-2.3c0.1-0.1,14.5-15.3,58.6-55.8
							c6.1-5.6,11.5-9.8,16.2-12.6c-1.6-3-2.9-5.9-3.9-8.6c-3.5-0.1-6.8-1-9.9-2.7c-0.8-0.5-1.6-0.9-2.4-1.5
							c-1.1,1.8-2.4,3.8-3.9,5.9c-5.6,7.8-13.8,17.6-24.4,29.1c-18.1,19.4-37.1,37.2-37.3,37.4c-0.7,0.6-1.7,0.6-2.3-0.1
							c-0.6-0.7-0.6-1.7,0.1-2.3c0.2-0.2,19.2-17.9,37.2-37.2c10.5-11.3,18.7-21,24.2-28.7c1.6-2.3,3-4.3,4-6.1
							c-4.7-4.4-6.9-10.1-6.1-13.7c0.6-2.4,2.4-3.8,5-3.8c4.3-0.1,7,1.3,8.1,4c1.2,2.9,0.2,7-2.9,12.8c0.7,0.5,1.5,1,2.3,1.5
							c1.8,1,4.3,1.9,7.3,2.2c-0.7-2.5-1.1-4.9-1.2-7.2c-0.4-8.5,3.4-13.4,6.7-16c3.4-2.7,8-4.3,12.6-4.3c4.5,0,8.5,1.4,10.7,3.8
							c1.6,1.7,4.5,6.5-2.4,13.9c-6.5,6.9-13.1,11.1-19.6,12.6c-0.8,0.2-1.6,0.3-2.4,0.4c0.9,2.3,2,4.7,3.3,7.2
							c0.2-0.1,0.4-0.2,0.7-0.3c4.8-2.3,8.7-2.7,11.5-1.3c2.7,1.4,4.1,4.4,3.7,8.1c-0.4,3.3-2.3,7.2-5.7,8.1c-1.5,0.4-4.4,0.3-7.4-4
							c-1.4-2.1-2.8-4.2-3.9-6.2c-4.5,2.6-9.7,6.7-15.6,12.1c-44,40.4-58.3,55.5-58.4,55.7C884.3,474.8,883.8,475,883.4,475z
							 M961.5,405.1c1.1,1.9,2.4,3.9,3.8,5.9c0.8,1.2,2.3,3,3.9,2.7c1.5-0.4,3-2.7,3.3-5.3c0.1-0.9,0.3-3.8-1.9-4.9
							c-1.8-0.9-4.8-0.4-8.6,1.3C961.8,405,961.7,405,961.5,405.1z M971.7,367.7c-0.4,0-0.9,0-1.4,0c-3.9,0-7.8,1.3-10.6,3.6
							c-5.5,4.4-6.8,11.5-4.2,20.7c5.6-0.5,12.7-3.5,20.7-12.1c2.1-2.2,5.1-6.4,2.3-9.4C977.2,368.8,974.7,367.9,971.7,367.7z
							 M938.7,374.8c-0.4,0-0.8,0-1.3,0c-1.4,0-1.7,0.7-1.9,1.3c-0.5,2.2,1.1,6.4,4.5,9.9c2.9-5.6,2.8-8.2,2.4-9.3
							C942,375.6,940.7,374.9,938.7,374.8z"/>
						<path fill="#FFB600" d="M885.9,512.8c-3-0.2-5.8-1.5-7.9-3.6l-40.2-39.4c-4.9-4.9-5-12.8-0.2-17.8l0.1-0.1
							c2.6-2.6,6.2-4,9.9-3.7c3,0.2,5.8,1.5,7.9,3.6l40.2,39.4c4.9,4.9,5,12.8,0.2,17.8l-0.1,0.1
							C893.2,511.7,889.6,513.1,885.9,512.8z M847.3,451.5c-2.7-0.2-5.4,0.8-7.3,2.8l-0.1,0.1c-3.6,3.7-3.5,9.6,0.1,13.1l40.2,39.4
							c1.6,1.5,3.7,2.5,5.9,2.6c2.7,0.2,5.4-0.8,7.3-2.8l0.1-0.1c3.6-3.7,3.5-9.6-0.1-13.1l-40.2-39.4
							C851.6,452.6,849.5,451.6,847.3,451.5z"/>
						<path fill="#FFB600" d="M870.9,525.9c-2.2-0.2-4.4-1.1-6-2.7l-40.6-39.9c-1.8-1.8-2.8-4.1-2.8-6.7c0-2.5,0.9-4.9,2.7-6.7
							c1.9-2,4.6-3,7.4-2.8c2.2,0.2,4.4,1.1,6,2.7l40.6,39.9c1.8,1.8,2.8,4.1,2.8,6.7c0,2.5-0.9,4.9-2.7,6.7
							C876.4,525.1,873.7,526.1,870.9,525.9z M831.4,470.4c-1.8-0.1-3.6,0.5-4.8,1.8c-1.2,1.2-1.8,2.7-1.8,4.4
							c0,1.7,0.7,3.2,1.9,4.4l40.6,39.9c1,1,2.4,1.7,3.9,1.8c1.8,0.1,3.6-0.5,4.8-1.8c1.2-1.2,1.8-2.7,1.8-4.4
							c0-1.7-0.7-3.2-1.9-4.4l-40.6-39.9C834.2,471.2,832.8,470.6,831.4,470.4z"/>
						<path fill="#FFB600" d="M1068.1,404.1c-0.2,0.1-0.4,0.3-0.6,0.5l-12.7,13.5l-16.8-13.2c-0.4-0.3-0.9-0.6-1.5-0.6l-23.5-4.1
							l2.1-25.6l12.4-22.5c0.8-1.5,0.4-3.4-1.1-4.3l-33.9-22.1l7-22.7l30.1-9c2.7-0.5,5.7-0.8,8-1.4c-9.2-7.2-20.7-13.7-31.9-17.6
							c-19-6.6-39.5-7.8-59.2-3.4c-20.2,4.5-38.6,14.8-53.2,29.6c-14.6,14.9-24.5,33.5-28.6,53.8c-3.9,19.1-2.6,38.8,3.9,57.1
							l-22.5,23c-0.6,0.6-0.9,1.5-0.9,2.3c0,0.9,0.4,1.7,1,2.3l63.2,62c0.4,0.3,0.8,0.6,1.2,0.8c1.2,0.4,2.5,0.1,3.4-0.8l22.5-23
							c18.5,6.1,38.3,7.1,57.3,2.8c20.2-4.5,38.6-14.8,53.2-29.6c10.2-10.4,18-22.4,23.3-35.8c2.3-5.9,4.2-12.7,5.5-18.8
							C1073.2,399.6,1070.7,401.9,1068.1,404.1z M1042.3,447.3c-27.3,27.8-68.7,37.5-105.5,24.6l-0.1,0c-1.2-0.4-2.5-0.1-3.4,0.8
							l-21.7,22.1l-58.5-57.4l21.7-22.1c0.9-0.9,1.2-2.2,0.7-3.4c-13.6-36.5-4.7-78.2,22.6-106c27.3-27.8,68.7-37.4,105.5-24.6
							c6.3,2.2,12.4,5,18.1,8.4l-25.7,7.7c-1,0.3-1.9,1.1-2.2,2.2l-8.3,26.7c-0.4,1.4,0.1,2.9,1.3,3.7l33.4,21.8l-11.3,20.4
							c-0.2,0.4-0.4,0.8-0.4,1.3l-2.4,29.3c-0.1,1.7,1,3.2,2.7,3.5l25.7,4.4l18.5,14.5c0.5,0.4,1.2,0.6,1.8,0.7
							c0.9,0.1,1.9-0.3,2.6-1l10.4-13.9C1063.2,420.4,1050,439.5,1042.3,447.3z"/>
						<path fill="#FFB600" d="M1063.7,336.8C1063.7,336.8,1063.6,336.8,1063.7,336.8l-39.6-4.4c-0.7-0.1-1.2-0.6-1.4-1.2l-4.8-20.4
							c-0.2-0.8,0.2-1.6,0.9-1.9l29.3-12.6c0.7-0.3,1.6-0.1,2,0.6c6.1,9.5,14.8,36.7,15.2,37.8c0.2,0.5,0.1,1.1-0.3,1.5
							C1064.7,336.6,1064.2,336.9,1063.7,336.8z M1025.6,329.3l35.8,4c-2.2-6.6-8.5-25.2-13.3-33.5l-26.8,11.5L1025.6,329.3z"/>
						<path fill="#FFB600" d="M1043.2,379c-0.1,0-0.2,0-0.3,0l-16.2-4.1c-0.5-0.1-0.9-0.5-1.1-1c-0.2-0.5-0.1-1.1,0.2-1.5l10.3-14.6
							c0.4-0.5,1-0.8,1.6-0.7c0.6,0.1,1.1,0.5,1.3,1.1l5.9,18.7c0.2,0.6,0,1.2-0.4,1.6C1044.2,378.9,1043.7,379.1,1043.2,379z
							 M1029.8,372.3l11.1,2.8l-4.1-12.8L1029.8,372.3z"/>
						<path fill="#FFB600" d="M1081.6,383.3c-11.9-0.8-18.1-3.5-18.8-8.2c-1.5-9.6,5.2-27.3,5.4-28.1c0.2-0.5,0.6-0.8,1.1-1
							c0.5-0.1,1,0,1.4,0.3l14.6,10.9l8.6-7.2c0.4-0.4,1.1-0.5,1.6-0.3c0.6,0.2,1,0.7,1,1.3l5,30.3c0.1,0.5,0,0.9-0.3,1.3
							c-0.3,0.4-0.7,0.6-1.2,0.6C1099.8,383.3,1090.7,384,1081.6,383.3z M1070.6,350.3c-1.7,4.9-5.6,17.4-4.5,24.3
							c0.2,1.3,2.1,4.4,15.8,5.4c6.5,0.5,13.2,0.2,16.3,0l-4.2-25.7l-7.4,6.2c-0.6,0.5-1.4,0.5-2,0.1L1070.6,350.3z"/>
						<path fill="#FFB600" d="M1102.6,414.4c-0.1,0-0.3,0-0.4-0.1l-16.2-5.7c-0.6-0.2-1-0.7-1.1-1.4c-0.1-0.6,0.2-1.2,0.8-1.6l8-5
							c0.7-0.4,1.6-0.3,2.2,0.4l8.2,10.7c0.4,0.6,0.5,1.4,0,2C1103.7,414.2,1103.1,414.4,1102.6,414.4z M1090.2,406.7l7.8,2.7
							l-4-5.1L1090.2,406.7z"/>
						<path fill="#FFB600" d="M1108,327.4c-0.2,0-0.5-0.1-0.7-0.2l-17.4-9.7c-0.5-0.3-0.8-0.7-0.8-1.2c-0.1-0.5,0.1-1,0.5-1.4
							l7.5-6.7c0.6-0.5,1.4-0.6,2-0.2l17.4,11.3c0.5,0.3,0.7,0.8,0.7,1.4c0,0.5-0.3,1.1-0.7,1.4l-7.5,5.2
							C1108.8,327.3,1108.4,327.4,1108,327.4z M1093.6,315.7l14.5,8.1l4.7-3.2l-14.3-9.3L1093.6,315.7z"/>
					</g>
				</g>
				<path fill="#FFB600" d="M896.4,328.5c-0.4,0-0.7-0.1-1.1-0.3c-0.9-0.6-1.1-1.8-0.6-2.7c6.6-10,14.5-18.5,23.5-25.1
					c7.2-5.3,15.1-9.4,23.5-12.3c14.3-4.9,25-4.3,25.4-4.3c1.1,0.1,1.9,1,1.8,2c-0.1,1.1-1,1.9-2,1.8l0,0c-0.1,0-10.5-0.5-24.2,4.2
					c-12.6,4.3-30.5,14-44.8,35.7C897.7,328.2,897.1,328.5,896.4,328.5z"/>
				<path fill="#FFB600" d="M880.5,378.2c-1,0-1.8-0.7-1.9-1.7c-2-14.3,5.6-35,5.9-35.9c0.4-1,1.5-1.5,2.5-1.1
					c1,0.4,1.5,1.5,1.1,2.5l0,0c-0.1,0.2-7.6,20.7-5.7,34c0.1,1.1-0.6,2-1.7,2.2C880.7,378.2,880.6,378.2,880.5,378.2z"/>
			</g>
			<g>
				<path fill="#00C3FF" d="M763.8,520.5H716c-1.5,0-2.8-1.2-2.8-2.8V467H628c-1,0-2-0.6-2.5-1.5l-20.3-39.2c-0.5-1-0.4-2.2,0.3-3
					l116.3-141.2c0.5-0.6,1.3-1,2.1-1h39.9c1.5,0,2.8,1.2,2.8,2.8v135.4h36.1c1.5,0,2.8,1.2,2.8,2.8v42.2c0,1.5-1.2,2.8-2.8,2.8
					h-36.1v50.7C766.6,519.3,765.4,520.5,763.8,520.5z M718.8,514.9h42.3v-50.7c0-1.5,1.2-2.8,2.8-2.8h36.1v-36.6h-36.1
					c-1.5,0-2.8-1.2-2.8-2.8V286.6h-35.8L611,425.4l18.6,36.1H716c1.5,0,2.8,1.2,2.8,2.8V514.9z M716,424.8h-51.6
					c-1.1,0-2.1-0.6-2.5-1.6c-0.5-1-0.3-2.1,0.4-2.9l51.6-62.9c0.7-0.9,2-1.2,3.1-0.9c1.1,0.4,1.8,1.4,1.8,2.6V422
					C718.8,423.6,717.5,424.8,716,424.8z M670.3,419.3h43v-52.4L670.3,419.3z"/>
			</g>
			<g>
				<path fill="#00C3FF" d="M1274,520.5h-47.8c-1.5,0-2.8-1.2-2.8-2.8V467h-85.3c-1,0-2-0.6-2.5-1.5l-20.3-39.2
					c-0.5-1-0.4-2.2,0.3-3L1232,282.1c0.5-0.6,1.3-1,2.1-1h39.9c1.5,0,2.8,1.2,2.8,2.8v135.4h36.1c1.5,0,2.8,1.2,2.8,2.8v42.2
					c0,1.5-1.2,2.8-2.8,2.8h-36.1v50.7C1276.8,519.3,1275.5,520.5,1274,520.5z M1228.9,514.9h42.3v-50.7c0-1.5,1.2-2.8,2.8-2.8h36.1
					v-36.6H1274c-1.5,0-2.8-1.2-2.8-2.8V286.6h-35.8l-114.3,138.8l18.6,36.1h86.4c1.5,0,2.8,1.2,2.8,2.8V514.9z M1226.1,424.8h-51.6
					c-1.1,0-2.1-0.6-2.5-1.6c-0.5-1-0.3-2.1,0.4-2.9l51.6-62.9c0.7-0.9,2-1.2,3.1-0.9c1.1,0.4,1.8,1.4,1.8,2.6V422
					C1228.9,423.6,1227.7,424.8,1226.1,424.8z M1180.4,419.3h43v-52.4L1180.4,419.3z"/>
			</g>
		</g>
	</g>
</g>
<g>
	<path fill="#FFFFFF" d="M689.1,890.4v-22.7h-7.8v-4.7h20.9v4.7h-8v22.7H689.1z"/>
	<path fill="#FFFFFF" d="M710.4,865.4c-1,0-1.7-0.2-2.2-0.7c-0.5-0.5-0.8-1.2-0.8-2.1c0-0.8,0.3-1.5,0.8-2c0.5-0.5,1.3-0.8,2.2-0.8
		c1,0,1.7,0.2,2.2,0.7c0.5,0.5,0.8,1.2,0.8,2.1c0,0.8-0.3,1.5-0.8,2C712.1,865.2,711.3,865.4,710.4,865.4z M708,890.4v-20.6h4.8
		v20.6H708z"/>
	<path fill="#FFFFFF" d="M720,890.4v-20.6h4.7l0.1,4.2l-0.8,0.3c0.2-0.7,0.6-1.3,1.1-1.9c0.5-0.6,1-1.1,1.7-1.5
		c0.7-0.4,1.3-0.8,2.1-1c0.7-0.2,1.5-0.4,2.3-0.4c1.1,0,2.1,0.2,3,0.5c0.9,0.4,1.6,0.9,2.2,1.7c0.6,0.8,1,1.7,1.3,2.9l-0.7-0.2
		l0.3-0.6c0.3-0.6,0.7-1.2,1.3-1.7c0.5-0.5,1.1-1,1.8-1.4c0.7-0.4,1.3-0.7,2.1-0.9c0.7-0.2,1.4-0.3,2.1-0.3c1.6,0,2.9,0.3,3.9,0.9
		c1,0.6,1.8,1.6,2.3,2.9c0.5,1.3,0.8,2.9,0.8,4.7v12.4h-4.8v-12.1c0-1.6-0.3-2.7-0.9-3.5c-0.6-0.8-1.6-1.1-2.8-1.1
		c-0.7,0-1.3,0.1-1.9,0.3c-0.6,0.2-1.1,0.5-1.5,0.9c-0.4,0.4-0.8,0.9-1,1.4c-0.2,0.5-0.4,1.1-0.4,1.8v12.3h-4.8v-12.2
		c0-1.5-0.3-2.6-1-3.4c-0.6-0.8-1.5-1.2-2.7-1.2c-0.7,0-1.3,0.1-1.9,0.3c-0.6,0.2-1.1,0.5-1.5,0.9c-0.4,0.4-0.8,0.9-1,1.4
		c-0.2,0.5-0.4,1.1-0.4,1.7v12.4H720z"/>
	<path fill="#FFFFFF" d="M767.4,890.8c-2.2,0-4.1-0.4-5.7-1.3c-1.7-0.9-2.9-2.1-3.9-3.7c-0.9-1.6-1.4-3.4-1.4-5.5
		c0-1.6,0.3-3.1,0.8-4.4c0.5-1.3,1.3-2.5,2.2-3.5c0.9-1,2.1-1.7,3.3-2.3c1.3-0.5,2.7-0.8,4.2-0.8c1.4,0,2.7,0.3,3.8,0.8
		c1.2,0.5,2.2,1.2,3,2.1c0.9,0.9,1.5,2,2,3.2c0.5,1.2,0.7,2.6,0.6,4l0,1.7h-16.6l-0.9-3.3h13.6l-0.6,0.7v-0.9
		c-0.1-0.8-0.3-1.5-0.8-2.1c-0.4-0.6-1-1.1-1.7-1.4c-0.7-0.4-1.5-0.5-2.3-0.5c-1.3,0-2.4,0.2-3.2,0.7c-0.9,0.5-1.6,1.2-2,2.1
		c-0.5,0.9-0.7,2.1-0.7,3.5c0,1.3,0.3,2.5,0.8,3.5c0.6,1,1.4,1.8,2.4,2.3c1,0.5,2.3,0.8,3.6,0.8c1,0,1.9-0.2,2.7-0.5
		s1.7-0.9,2.6-1.7l2.3,3.3c-0.7,0.7-1.5,1.2-2.4,1.7c-0.9,0.5-1.8,0.8-2.8,1.1S768.4,890.8,767.4,890.8z"/>
	<path fill="#FFFFFF" d="M792.7,874.3v-4.5H806v4.5H792.7z M796.8,890.4v-25.8h4.8v25.8H796.8z"/>
	<path fill="#FFFFFF" d="M820.2,890.8c-2.1,0-3.9-0.5-5.5-1.4c-1.6-0.9-2.9-2.2-3.8-3.8c-0.9-1.6-1.4-3.5-1.4-5.5
		c0-2.1,0.5-3.9,1.4-5.5c0.9-1.6,2.2-2.9,3.8-3.8c1.6-0.9,3.5-1.4,5.5-1.4c2,0,3.9,0.5,5.5,1.4c1.6,0.9,2.9,2.2,3.8,3.8
		c0.9,1.6,1.4,3.5,1.4,5.5c0,2.1-0.5,3.9-1.4,5.5c-0.9,1.6-2.2,2.9-3.8,3.8C824.1,890.4,822.3,890.8,820.2,890.8z M820.2,886.6
		c1.1,0,2.1-0.3,3-0.8c0.9-0.6,1.6-1.3,2.1-2.3c0.5-1,0.7-2.1,0.7-3.3c0-1.2-0.2-2.4-0.7-3.3c-0.5-1-1.2-1.7-2.1-2.3
		c-0.9-0.5-1.9-0.8-3-0.8c-1.1,0-2.1,0.3-3,0.8s-1.6,1.3-2.1,2.3c-0.5,1-0.7,2.1-0.7,3.3c0,1.2,0.2,2.3,0.7,3.3
		c0.5,1,1.2,1.7,2.1,2.3C818.1,886.3,819.1,886.6,820.2,886.6z"/>
	<path fill="#FFFFFF" d="M849,890.4v-20.6h4.7l0.1,6.6l-0.6-1.5c0.3-1,0.8-2,1.5-2.8c0.7-0.8,1.5-1.5,2.4-2c0.9-0.5,1.9-0.7,2.9-0.7
		c0.4,0,0.9,0,1.3,0.1c0.4,0.1,0.7,0.2,1,0.3L861,875c-0.3-0.2-0.7-0.3-1.1-0.4c-0.4-0.1-0.8-0.1-1.2-0.1c-0.7,0-1.3,0.1-1.9,0.4
		c-0.6,0.2-1.1,0.6-1.5,1c-0.4,0.4-0.8,1-1,1.5c-0.3,0.6-0.4,1.2-0.4,1.9v11H849z"/>
	<path fill="#FFFFFF" d="M876.3,890.8c-2.2,0-4.1-0.4-5.7-1.3c-1.7-0.9-2.9-2.1-3.9-3.7c-0.9-1.6-1.4-3.4-1.4-5.5
		c0-1.6,0.3-3.1,0.8-4.4c0.5-1.3,1.3-2.5,2.2-3.5c0.9-1,2.1-1.7,3.3-2.3c1.3-0.5,2.7-0.8,4.2-0.8c1.4,0,2.7,0.3,3.8,0.8
		c1.2,0.5,2.2,1.2,3,2.1c0.9,0.9,1.5,2,2,3.2c0.5,1.2,0.7,2.6,0.6,4l0,1.7h-16.6l-0.9-3.3h13.6l-0.6,0.7v-0.9
		c-0.1-0.8-0.3-1.5-0.8-2.1c-0.4-0.6-1-1.1-1.7-1.4c-0.7-0.4-1.5-0.5-2.3-0.5c-1.3,0-2.4,0.2-3.2,0.7c-0.9,0.5-1.6,1.2-2,2.1
		c-0.5,0.9-0.7,2.1-0.7,3.5c0,1.3,0.3,2.5,0.8,3.5c0.6,1,1.4,1.8,2.4,2.3c1,0.5,2.3,0.8,3.6,0.8c1,0,1.9-0.2,2.7-0.5
		s1.7-0.9,2.6-1.7l2.3,3.3c-0.7,0.7-1.5,1.2-2.4,1.7c-0.9,0.5-1.8,0.8-2.8,1.1S877.2,890.8,876.3,890.8z"/>
	<path fill="#FFFFFF" d="M899,890.8c-1.9,0-3.5-0.5-4.9-1.4c-1.4-0.9-2.6-2.2-3.4-3.8c-0.8-1.6-1.3-3.4-1.3-5.5
		c0-2.1,0.4-3.9,1.3-5.5c0.8-1.6,2-2.9,3.4-3.8c1.4-0.9,3.1-1.4,4.9-1.4c1,0,1.9,0.2,2.9,0.5c0.9,0.3,1.8,0.7,2.5,1.3
		c0.7,0.5,1.3,1.1,1.8,1.8c0.4,0.7,0.7,1.3,0.7,2l-1.3,0.2v-13.6h4.8v28.9h-4.7l-0.1-4.8l0.9,0.1c0,0.6-0.2,1.2-0.7,1.8
		c-0.4,0.6-1,1.1-1.7,1.6c-0.7,0.5-1.5,0.9-2.4,1.2C900.9,890.7,900,890.8,899,890.8z M899.9,886.7c1.1,0,2.1-0.3,3-0.8
		s1.5-1.3,2-2.3c0.5-1,0.7-2.2,0.7-3.5c0-1.3-0.2-2.4-0.7-3.4c-0.5-1-1.2-1.8-2-2.3c-0.9-0.6-1.9-0.9-3-0.9c-1.1,0-2.1,0.3-3,0.9
		c-0.8,0.6-1.5,1.4-2,2.3c-0.5,1-0.7,2.1-0.7,3.4c0,1.3,0.2,2.5,0.7,3.5c0.5,1,1.2,1.8,2,2.3C897.8,886.5,898.8,886.7,899.9,886.7z"
		/>
	<path fill="#FFFFFF" d="M926.6,890.8c-2.2,0-4.1-0.4-5.7-1.3c-1.7-0.9-2.9-2.1-3.9-3.7c-0.9-1.6-1.4-3.4-1.4-5.5
		c0-1.6,0.3-3.1,0.8-4.4c0.5-1.3,1.3-2.5,2.2-3.5c0.9-1,2.1-1.7,3.3-2.3c1.3-0.5,2.7-0.8,4.2-0.8c1.4,0,2.7,0.3,3.8,0.8
		c1.2,0.5,2.2,1.2,3,2.1c0.9,0.9,1.5,2,2,3.2c0.5,1.2,0.7,2.6,0.6,4l0,1.7h-16.6l-0.9-3.3h13.6l-0.6,0.7v-0.9
		c-0.1-0.8-0.3-1.5-0.8-2.1c-0.4-0.6-1-1.1-1.7-1.4c-0.7-0.4-1.5-0.5-2.3-0.5c-1.3,0-2.4,0.2-3.2,0.7c-0.9,0.5-1.6,1.2-2,2.1
		c-0.5,0.9-0.7,2.1-0.7,3.5c0,1.3,0.3,2.5,0.8,3.5c0.6,1,1.4,1.8,2.4,2.3c1,0.5,2.3,0.8,3.6,0.8c1,0,1.9-0.2,2.7-0.5
		s1.7-0.9,2.6-1.7l2.3,3.3c-0.7,0.7-1.5,1.2-2.4,1.7c-0.9,0.5-1.8,0.8-2.8,1.1S927.5,890.8,926.6,890.8z"/>
	<path fill="#FFFFFF" d="M947.9,890.8c-1.8,0-3.4-0.3-4.9-0.9c-1.4-0.6-2.6-1.5-3.5-2.6l3.1-2.7c0.8,0.9,1.7,1.5,2.6,1.9
		c1,0.4,2,0.6,3,0.6c0.4,0,0.8-0.1,1.2-0.2c0.4-0.1,0.7-0.3,0.9-0.5c0.3-0.2,0.5-0.5,0.6-0.7c0.1-0.3,0.2-0.6,0.2-0.9
		c0-0.6-0.2-1.1-0.7-1.5c-0.3-0.2-0.7-0.3-1.2-0.6c-0.5-0.2-1.3-0.4-2.1-0.6c-1.4-0.4-2.6-0.8-3.5-1.3c-1-0.5-1.7-1-2.2-1.6
		c-0.4-0.5-0.8-1.1-1-1.7c-0.2-0.6-0.3-1.3-0.3-2.1c0-1.2,0.3-2.2,1-3.1c0.7-0.9,1.6-1.6,2.8-2.1c1.1-0.5,2.4-0.8,3.8-0.8
		c1,0,2.1,0.1,3,0.4c1,0.3,1.9,0.6,2.7,1.1c0.8,0.5,1.5,1.1,2.1,1.7l-2.7,2.9c-0.5-0.5-1-0.9-1.6-1.3c-0.6-0.4-1.2-0.7-1.8-0.9
		c-0.6-0.2-1.2-0.3-1.7-0.3c-0.5,0-0.9,0-1.3,0.1c-0.4,0.1-0.7,0.2-1,0.4c-0.3,0.2-0.5,0.4-0.6,0.7c-0.1,0.3-0.2,0.6-0.2,0.9
		c0,0.3,0.1,0.6,0.3,0.9c0.1,0.3,0.3,0.5,0.6,0.7c0.3,0.2,0.7,0.4,1.3,0.6c0.6,0.2,1.3,0.5,2.2,0.7c1.3,0.3,2.3,0.7,3.2,1.1
		c0.9,0.4,1.5,0.9,2,1.4c0.5,0.5,0.8,1,1.1,1.6c0.2,0.6,0.3,1.3,0.3,2.1c0,1.2-0.3,2.3-1,3.3c-0.7,1-1.6,1.7-2.8,2.2
		C950.7,890.5,949.4,890.8,947.9,890.8z"/>
	<path fill="#FFFFFF" d="M964,865.4c-1,0-1.7-0.2-2.2-0.7c-0.5-0.5-0.8-1.2-0.8-2.1c0-0.8,0.3-1.5,0.8-2s1.3-0.8,2.2-0.8
		c1,0,1.7,0.2,2.2,0.7c0.5,0.5,0.8,1.2,0.8,2.1c0,0.8-0.3,1.5-0.8,2C965.7,865.2,964.9,865.4,964,865.4z M961.6,890.4v-20.6h4.8
		v20.6H961.6z"/>
	<path fill="#FFFFFF" d="M982.9,899.4c-1.5,0-3-0.2-4.6-0.7c-1.5-0.5-2.8-1.1-3.7-1.8l1.7-3.6c0.8,0.6,1.7,1.1,2.9,1.4
		s2.3,0.5,3.4,0.5c1.4,0,2.5-0.2,3.5-0.7c0.9-0.4,1.6-1.1,2.1-2c0.5-0.9,0.7-1.9,0.7-3.2v-3.8l0.7,0.3c-0.1,0.8-0.6,1.6-1.3,2.3
		s-1.6,1.3-2.7,1.8s-2.2,0.7-3.3,0.7c-1.9,0-3.6-0.4-5.2-1.3c-1.5-0.9-2.7-2.1-3.6-3.7c-0.9-1.6-1.3-3.4-1.3-5.5
		c0-2.1,0.4-3.9,1.3-5.5c0.9-1.6,2-2.9,3.6-3.8c1.5-0.9,3.2-1.4,5.1-1.4c0.8,0,1.5,0.1,2.2,0.3c0.7,0.2,1.4,0.4,2,0.8
		c0.6,0.3,1.2,0.7,1.7,1.1s0.9,0.9,1.2,1.3c0.3,0.5,0.5,0.9,0.6,1.3l-1,0.4l0.1-4.8h4.7V889c0,1.7-0.2,3.1-0.7,4.4
		c-0.5,1.3-1.2,2.4-2.1,3.2s-2.1,1.6-3.4,2C986.1,899.2,984.6,899.4,982.9,899.4z M983.1,886.5c1.2,0,2.3-0.3,3.2-0.8
		c0.9-0.5,1.6-1.3,2.1-2.3c0.5-1,0.7-2.1,0.7-3.3c0-1.3-0.3-2.4-0.8-3.4c-0.5-1-1.2-1.7-2.1-2.3c-0.9-0.5-1.9-0.8-3.1-0.8
		c-1.1,0-2.2,0.3-3.1,0.8c-0.9,0.6-1.6,1.3-2.1,2.3c-0.5,1-0.8,2.1-0.8,3.3c0,1.3,0.3,2.4,0.8,3.3c0.5,1,1.2,1.7,2.1,2.3
		C980.9,886.2,982,886.5,983.1,886.5z"/>
	<path fill="#FFFFFF" d="M1000.5,890.4v-20.6h4.7l0.1,4.2l-0.9,0.5c0.3-0.9,0.8-1.8,1.5-2.5c0.7-0.8,1.6-1.4,2.7-1.9
		c1-0.5,2.1-0.7,3.2-0.7c1.6,0,2.9,0.3,3.9,0.9c1.1,0.6,1.8,1.6,2.4,2.8c0.5,1.2,0.8,2.8,0.8,4.7v12.6h-4.8v-12.2
		c0-1.1-0.1-1.9-0.4-2.6s-0.7-1.2-1.3-1.5c-0.6-0.3-1.3-0.5-2.2-0.4c-0.7,0-1.4,0.1-2,0.3c-0.6,0.2-1.1,0.5-1.5,0.9s-0.8,0.9-1,1.4
		c-0.2,0.5-0.4,1.1-0.4,1.7v12.4h-2.4c-0.4,0-0.9,0-1.3,0C1001.2,890.4,1000.8,890.4,1000.5,890.4z"/>
	<path fill="#FFFFFF" d="M1041.3,899.4l4.3-10.1l0,3.2l-10.2-22.7h5.5l5.7,13.6c0.2,0.3,0.4,0.8,0.5,1.3c0.2,0.6,0.3,1.1,0.5,1.6
		l-1,0.4c0.2-0.5,0.4-1,0.6-1.6c0.2-0.6,0.4-1.1,0.6-1.7l4.8-13.6h5.5l-8.6,20.6l-3.5,9H1041.3z"/>
	<path fill="#FFFFFF" d="M1071.9,890.8c-2.1,0-3.9-0.5-5.5-1.4c-1.6-0.9-2.9-2.2-3.8-3.8c-0.9-1.6-1.4-3.5-1.4-5.5
		c0-2.1,0.5-3.9,1.4-5.5c0.9-1.6,2.2-2.9,3.8-3.8c1.6-0.9,3.5-1.4,5.5-1.4c2,0,3.9,0.5,5.5,1.4s2.9,2.2,3.8,3.8
		c0.9,1.6,1.4,3.5,1.4,5.5c0,2.1-0.5,3.9-1.4,5.5c-0.9,1.6-2.2,2.9-3.8,3.8C1075.7,890.4,1073.9,890.8,1071.9,890.8z M1071.9,886.6
		c1.1,0,2.1-0.3,3-0.8c0.9-0.6,1.6-1.3,2.1-2.3c0.5-1,0.8-2.1,0.7-3.3c0-1.2-0.2-2.4-0.7-3.3c-0.5-1-1.2-1.7-2.1-2.3
		c-0.9-0.5-1.9-0.8-3-0.8c-1.1,0-2.1,0.3-3,0.8s-1.6,1.3-2.1,2.3c-0.5,1-0.7,2.1-0.7,3.3c0,1.2,0.2,2.3,0.7,3.3
		c0.5,1,1.2,1.7,2.1,2.3C1069.7,886.3,1070.7,886.6,1071.9,886.6z"/>
	<path fill="#FFFFFF" d="M1095.1,890.8c-1.5,0-2.8-0.3-3.8-1c-1.1-0.7-1.9-1.6-2.5-2.9c-0.6-1.2-0.9-2.7-0.9-4.4v-12.7h4.8v11.7
		c0,1.6,0.4,2.9,1.2,3.8c0.8,0.9,1.8,1.4,3.2,1.4c0.7,0,1.3-0.1,1.9-0.3s1-0.5,1.5-0.9c0.4-0.4,0.7-0.9,1-1.5s0.4-1.2,0.4-1.8v-12.4
		h4.8v20.6h-4.7l-0.1-4.3l0.9-0.5c-0.3,1-0.8,1.8-1.6,2.6c-0.7,0.8-1.6,1.4-2.6,1.9C1097.4,890.6,1096.3,890.8,1095.1,890.8z"/>
	<path fill="#FFFFFF" d="M1113.3,890.4v-20.6h4.7l0.1,6.6l-0.6-1.5c0.3-1,0.8-2,1.5-2.8c0.7-0.8,1.5-1.5,2.4-2
		c0.9-0.5,1.9-0.7,2.9-0.7c0.4,0,0.9,0,1.3,0.1s0.7,0.2,1,0.3l-1.3,5.2c-0.3-0.2-0.7-0.3-1.1-0.4c-0.4-0.1-0.8-0.1-1.2-0.1
		c-0.7,0-1.3,0.1-1.9,0.4s-1.1,0.6-1.5,1c-0.4,0.4-0.8,1-1,1.5c-0.3,0.6-0.4,1.2-0.4,1.9v11H1113.3z"/>
	<path fill="#FFFFFF" d="M1143.6,899v-29.2h4.7l0.1,4.7l-0.8-0.4c0.2-0.8,0.6-1.6,1.3-2.3c0.7-0.7,1.6-1.3,2.7-1.7
		c1.1-0.4,2.2-0.7,3.3-0.7c1.8,0,3.4,0.5,4.9,1.4s2.5,2.2,3.4,3.8c0.8,1.6,1.2,3.4,1.2,5.5c0,2.1-0.4,3.9-1.2,5.5
		c-0.8,1.6-1.9,2.9-3.3,3.8c-1.4,0.9-3,1.4-4.8,1.4c-1.2,0-2.4-0.2-3.5-0.7c-1.1-0.5-2-1.1-2.8-1.8s-1.2-1.5-1.4-2.3l1.2-0.6V899
		H1143.6z M1154,886.5c1.1,0,2.1-0.3,2.9-0.8c0.9-0.5,1.5-1.3,2-2.3c0.5-1,0.7-2.1,0.7-3.3c0-1.2-0.2-2.4-0.7-3.3
		c-0.5-1-1.2-1.7-2-2.3s-1.8-0.8-3-0.8c-1.1,0-2.1,0.3-3,0.8c-0.9,0.5-1.5,1.3-2,2.3c-0.5,1-0.7,2.1-0.7,3.3c0,1.3,0.2,2.4,0.7,3.3
		c0.5,1,1.2,1.7,2,2.3C1151.8,886.2,1152.8,886.5,1154,886.5z"/>
	<path fill="#FFFFFF" d="M1175.7,890.8c-1.3,0-2.5-0.3-3.6-0.8c-1-0.5-1.9-1.2-2.5-2.2c-0.6-0.9-0.9-2-0.9-3.3
		c0-1.1,0.2-2.1,0.6-2.9c0.4-0.8,1-1.5,1.7-2.1c0.8-0.5,1.7-1,2.9-1.2c1.2-0.3,2.5-0.4,4-0.4h5.9l-0.4,3.4h-5.8
		c-0.7,0-1.3,0.1-1.9,0.2c-0.5,0.1-1,0.3-1.4,0.6s-0.7,0.6-0.9,0.9c-0.2,0.4-0.3,0.8-0.3,1.3c0,0.5,0.1,1,0.4,1.3
		c0.3,0.4,0.6,0.7,1.1,0.9c0.4,0.2,1,0.3,1.6,0.3c0.9,0,1.7-0.1,2.4-0.4c0.8-0.3,1.5-0.7,2.1-1.2c0.6-0.5,1.1-1.1,1.4-1.8l1,2.7
		c-0.5,0.9-1.2,1.7-2,2.4c-0.8,0.7-1.7,1.2-2.6,1.6C1177.6,890.6,1176.6,890.8,1175.7,890.8z M1181.5,890.4v-13.2
		c0-1.1-0.4-2-1.1-2.6c-0.7-0.6-1.7-1-2.9-1c-1.1,0-2.1,0.2-3,0.6c-0.9,0.4-1.7,1.1-2.5,2.1l-3-3c1.2-1.3,2.6-2.3,4.1-3
		c1.5-0.7,3.1-1,4.8-1c1.6,0,3.1,0.3,4.2,0.8c1.2,0.5,2.1,1.3,2.8,2.3c0.7,1,1,2.3,1,3.8v14.1H1181.5z"/>
	<path fill="#FFFFFF" d="M1190.4,874.3v-4.5h13.3v4.5H1190.4z M1194.5,890.4v-25.8h4.8v25.8H1194.5z"/>
	<path fill="#FFFFFF" d="M1208.6,890.4v-28.9h4.7V874l-0.9,0.5c0.3-0.9,0.8-1.8,1.5-2.5c0.7-0.8,1.6-1.4,2.7-1.9
		c1-0.5,2.1-0.7,3.2-0.7c1.6,0,2.9,0.3,3.9,0.9c1.1,0.6,1.8,1.6,2.4,2.8c0.5,1.2,0.8,2.8,0.8,4.7v12.6h-4.8v-12.2
		c0-1.1-0.1-1.9-0.4-2.6c-0.3-0.7-0.7-1.2-1.3-1.5c-0.6-0.3-1.3-0.5-2.2-0.4c-0.7,0-1.4,0.1-2,0.3c-0.6,0.2-1.1,0.5-1.5,0.9
		s-0.8,0.9-1,1.4c-0.2,0.5-0.4,1.1-0.4,1.7v12.4h-2.4c-0.4,0-0.9,0-1.3,0S1208.9,890.4,1208.6,890.4z"/>
	<path fill="#FFFFFF" d="M1235.4,890.9c-0.9,0-1.7-0.3-2.2-0.8c-0.5-0.5-0.8-1.3-0.8-2.3c0-0.9,0.3-1.7,0.8-2.2
		c0.5-0.6,1.2-0.9,2.1-0.9c0.9,0,1.7,0.3,2.2,0.8c0.5,0.5,0.8,1.3,0.8,2.3c0,0.9-0.3,1.7-0.8,2.2
		C1237,890.6,1236.3,890.9,1235.4,890.9z"/>
</g>
<g>
	<g>
		<path fill="#FFFFFF" d="M871.7,948.5V933h6.6c1,0,1.9,0.1,2.6,0.4c0.7,0.3,1.2,0.7,1.6,1.3c0.4,0.6,0.5,1.3,0.5,2.1
			c0,0.9-0.2,1.6-0.7,2.2c-0.5,0.6-1.1,1-1.9,1.2v-0.4c0.7,0.1,1.3,0.4,1.8,0.8c0.5,0.4,0.9,0.8,1.2,1.4c0.3,0.6,0.4,1.2,0.4,1.9
			c0,0.8-0.1,1.4-0.4,2c-0.2,0.6-0.6,1.1-1.1,1.4c-0.5,0.4-1,0.7-1.7,0.9c-0.6,0.2-1.4,0.3-2.2,0.3H871.7z M874.5,939.4h3.6
			c0.4,0,0.8-0.1,1.1-0.2c0.3-0.2,0.6-0.4,0.8-0.7c0.2-0.3,0.3-0.6,0.3-1c0-0.6-0.2-1.1-0.6-1.4c-0.4-0.3-1-0.5-1.8-0.5h-3.3V939.4z
			 M874.5,945.9h3.9c0.8,0,1.4-0.2,1.9-0.5c0.4-0.4,0.7-0.9,0.7-1.6c0-0.4-0.1-0.8-0.3-1.1c-0.2-0.3-0.5-0.5-0.9-0.7
			c-0.4-0.2-0.9-0.2-1.4-0.2h-3.8V945.9z"/>
		<path fill="#FFFFFF" d="M885.9,948.5l6-15.5h2.7l6,15.5h-3l-3.3-8.9c-0.1-0.2-0.2-0.4-0.3-0.8c-0.1-0.4-0.3-0.8-0.4-1.3
			c-0.1-0.5-0.3-0.9-0.4-1.3c-0.1-0.4-0.2-0.7-0.3-0.9l0.6,0c-0.1,0.3-0.2,0.6-0.3,1c-0.1,0.4-0.2,0.8-0.4,1.2
			c-0.1,0.4-0.3,0.8-0.4,1.2c-0.1,0.4-0.3,0.7-0.4,1l-3.3,8.8H885.9z M888.6,944.9l1-2.5h7.1l1.1,2.5H888.6z"/>
		<path fill="#FFFFFF" d="M910.3,948.7c-1.1,0-2.1-0.2-3.1-0.6c-0.9-0.4-1.7-0.9-2.4-1.6c-0.7-0.7-1.2-1.6-1.6-2.5
			c-0.4-1-0.6-2.1-0.6-3.2c0-1.1,0.2-2.2,0.6-3.1c0.4-1,1-1.8,1.7-2.5c0.7-0.7,1.5-1.3,2.5-1.7c0.9-0.4,2-0.6,3.1-0.6
			c0.8,0,1.5,0.1,2.2,0.3c0.7,0.2,1.4,0.5,2,0.9c0.6,0.4,1.1,0.9,1.5,1.4l-1.8,2c-0.6-0.6-1.2-1-1.8-1.3c-0.6-0.3-1.3-0.5-2-0.5
			c-0.7,0-1.3,0.1-1.9,0.4c-0.6,0.3-1.1,0.6-1.5,1.1c-0.4,0.5-0.8,1-1,1.6c-0.3,0.6-0.4,1.3-0.4,2.1c0,0.8,0.1,1.5,0.4,2.1
			c0.2,0.6,0.6,1.2,1,1.6c0.4,0.5,1,0.8,1.6,1c0.6,0.2,1.3,0.4,2.1,0.4c0.5,0,0.9-0.1,1.4-0.2c0.5-0.1,0.9-0.3,1.3-0.6
			c0.4-0.3,0.8-0.5,1.1-0.9l1.4,2.3c-0.4,0.4-0.8,0.8-1.4,1.1c-0.6,0.3-1.2,0.6-2,0.8C911.8,948.6,911,948.7,910.3,948.7z"/>
		<path fill="#FFFFFF" d="M919.5,948.5V933h2.9v15.5H919.5z M921.8,943.9l-0.4-2.9l8-8h3.6L921.8,943.9z M929.7,948.5l-5.9-7.8
			l2-1.7l7.3,9.6H929.7z"/>
		<path fill="#FFFFFF" d="M946.7,948.5v-12.8h-4.4V933h11.8v2.7h-4.5v12.8H946.7z"/>
		<path fill="#FFFFFF" d="M964.3,948.7c-1.1,0-2.1-0.2-3.1-0.6c-0.9-0.4-1.8-1-2.5-1.7c-0.7-0.7-1.2-1.6-1.6-2.5
			c-0.4-1-0.6-2-0.6-3.2s0.2-2.2,0.6-3.2c0.4-1,0.9-1.8,1.6-2.5c0.7-0.7,1.5-1.3,2.5-1.7c0.9-0.4,2-0.6,3.1-0.6
			c1.1,0,2.1,0.2,3.1,0.6c0.9,0.4,1.8,1,2.5,1.7c0.7,0.7,1.2,1.6,1.6,2.5c0.4,1,0.6,2,0.6,3.2c0,1.2-0.2,2.2-0.6,3.2
			c-0.4,1-0.9,1.8-1.6,2.5c-0.7,0.7-1.5,1.3-2.5,1.7C966.4,948.5,965.4,948.7,964.3,948.7z M964.3,946c0.7,0,1.4-0.1,1.9-0.4
			c0.6-0.3,1.1-0.6,1.5-1.1c0.4-0.5,0.8-1,1-1.7c0.2-0.6,0.4-1.3,0.4-2.1s-0.1-1.5-0.4-2.1c-0.2-0.6-0.6-1.2-1-1.7
			c-0.4-0.5-0.9-0.8-1.5-1.1c-0.6-0.3-1.2-0.4-1.9-0.4c-0.7,0-1.4,0.1-1.9,0.4c-0.6,0.3-1.1,0.6-1.5,1.1c-0.4,0.5-0.8,1-1,1.7
			c-0.2,0.6-0.4,1.3-0.4,2.1c0,1,0.2,1.9,0.6,2.7c0.4,0.8,1,1.4,1.7,1.9C962.5,945.8,963.4,946,964.3,946z"/>
		<path fill="#FFFFFF" d="M982.9,948.5V933h2.9v15.5H982.9z M984.1,942.1v-2.7h10.1v2.7H984.1z M992.9,948.5V933h2.9v15.5H992.9z"/>
		<path fill="#FFFFFF" d="M1007.3,948.7c-1.1,0-2.1-0.2-3.1-0.6c-0.9-0.4-1.8-1-2.5-1.7c-0.7-0.7-1.2-1.6-1.6-2.5
			c-0.4-1-0.6-2-0.6-3.2s0.2-2.2,0.6-3.2c0.4-1,0.9-1.8,1.6-2.5c0.7-0.7,1.5-1.3,2.5-1.7c0.9-0.4,2-0.6,3.1-0.6s2.1,0.2,3.1,0.6
			c0.9,0.4,1.8,1,2.5,1.7c0.7,0.7,1.2,1.6,1.6,2.5c0.4,1,0.6,2,0.6,3.2c0,1.2-0.2,2.2-0.6,3.2c-0.4,1-0.9,1.8-1.6,2.5
			c-0.7,0.7-1.5,1.3-2.5,1.7C1009.4,948.5,1008.4,948.7,1007.3,948.7z M1007.3,946c0.7,0,1.4-0.1,1.9-0.4c0.6-0.3,1.1-0.6,1.5-1.1
			c0.4-0.5,0.8-1,1-1.7c0.2-0.6,0.4-1.3,0.4-2.1s-0.1-1.5-0.4-2.1c-0.2-0.6-0.6-1.2-1-1.7c-0.4-0.5-0.9-0.8-1.5-1.1
			c-0.6-0.3-1.2-0.4-1.9-0.4c-0.7,0-1.4,0.1-1.9,0.4c-0.6,0.3-1.1,0.6-1.5,1.1c-0.4,0.5-0.8,1-1,1.7c-0.2,0.6-0.4,1.3-0.4,2.1
			c0,1,0.2,1.9,0.6,2.7s1,1.4,1.7,1.9C1005.5,945.8,1006.3,946,1007.3,946z"/>
		<path fill="#FFFFFF" d="M1018.8,948.5V933h2.7l5.6,9.2l-1.5,0l5.7-9.1h2.6v15.5h-2.8v-5.8c0-1.3,0-2.5,0.1-3.6
			c0.1-1.1,0.2-2.1,0.3-3.2l0.4,0.9l-4.8,7.4h-1.5l-4.7-7.4l0.3-1c0.2,1,0.3,2,0.3,3.1c0.1,1,0.1,2.3,0.1,3.7v5.8H1018.8z"/>
		<path fill="#FFFFFF" d="M1038.7,948.5V933h10.1v2.6h-7.3v10.3h7.4v2.6H1038.7z M1040,941.9v-2.6h7.7v2.6H1040z"/>
	</g>
	<g>
		<path fill="#FFB600" d="M1047.7,962.7H872.3c-12,0-21.7-9.8-21.7-21.7s9.8-21.7,21.7-21.7h175.3c12,0,21.7,9.8,21.7,21.7
			S1059.6,962.7,1047.7,962.7z M872.3,921.2c-10.9,0-19.7,8.9-19.7,19.7s8.9,19.7,19.7,19.7h175.3c10.9,0,19.7-8.9,19.7-19.7
			s-8.9-19.7-19.7-19.7H872.3z"/>
	</g>
</g>
</svg>
