<?xml version="1.0" encoding="utf-8"?>
<!-- Generator: Adobe Illustrator 29.6.1, SVG Export Plug-In . SVG Version: 9.03 Build 0)  -->
<svg version="1.1" id="Layer_1" xmlns="http://www.w3.org/2000/svg" xmlns:xlink="http://www.w3.org/1999/xlink" x="0px" y="0px"
	 viewBox="0 0 500 500" enable-background="new 0 0 500 500" xml:space="preserve">
<g>
	<path fill="#141414" d="M258.1,82.3c14.8-9.2,32.2-14.2,49.7-14.1c12.6,0,25.3-0.1,37.9,0c9.7,0.1,19.4-0.4,29,0.7
		c16.6,2.2,32.7,8.7,45.7,19.4c14.2,10.9,24.1,26.6,29.3,43.6c3.3,12.4,5.3,25.4,3.1,38.1c-3,30.4-22.5,58.7-50.1,71.9
		c-13.6,6.9-28.9,9.6-44,9.6c-15.4,0.1-30.8,0.1-46.1,0.4c-1.3-0.2-2.5,0.4-3.5,1.2c-8,7-16.1,14-24.4,20.6c-3.6,2.8-7.2,5.9-11.3,8
		c-3.2,2-7.4,0.9-10.4-1.1c-2.5-2.5-3.7-6.3-3.4-9.8c1.1-10.6,3-21.1,3-31.8c-14.1-9.3-27-21.2-34.9-36.3
		c-5.8-10.4-9.6-21.9-10.7-33.8c-0.9-13.5-0.2-27.3,4.3-40.2C227.8,109.6,241,92.9,258.1,82.3 M334.1,145.6
		c-6.2,1.9-11.5,7.7-11.4,14.4c-0.5,7.5,5.7,14.4,12.9,15.7c8.9,1.6,17.8-6.9,17.2-15.8C352.9,150.7,342.9,142.9,334.1,145.6
		 M385.2,145.6c-4,1.1-7.6,3.8-9.8,7.3c-2.1,3.2-2.1,7.3-1.5,11c1.4,5.8,6.5,10.4,12.3,11.7c8.9,1.8,18.4-6.5,17.6-15.6
		C404.3,150.7,393.9,143,385.2,145.6 M281.1,146.4c-5.4,2.2-9.9,7.5-9.8,13.6c-0.9,8.1,6.3,16,14.4,16c8.9,0.6,17.1-8.4,15.5-17.2
		C300.2,149.7,289.7,142.5,281.1,146.4z"/>
	<path fill="#141414" d="M70.6,118.7c6.9-6.9,15-13.9,25-15.5c6.2-0.9,12.9,0.7,17.7,5c7.6,6.5,12.4,15.4,16.6,24.3
		c2.1,4.5,4.8,8.8,6.6,13.5c-2.6,0.3-0.6,0.8,0.7,0.9c4.5,9.3,9.2,18.4,13.9,27.6c3,5.5,6.4,11,6.8,17.4c0.6,5.4-1.4,11.1-5.4,14.8
		c-6.8,7.2-16.9,11-22.1,19.7c-4.2,6.6-3.1,15.1,0.2,21.7c14.7,29.6,36.9,54.8,61.9,76.1c6.4,5,12.6,10.5,20.1,14
		c5.3,2.4,11.6,3.2,17.2,1.1c13.4-3.9,20.6-18.1,34-22.1c8.4-1.6,16.5,2.8,23.1,7.5c16.4,11.4,33.2,22.4,49.3,34.2
		c7.2,4.8,11.8,13.3,11.3,22c0.3,8.9-4.3,17.1-9.6,23.9c-11.2,14.7-28.8,23.9-47.1,26.2c-19.4,2.7-38.8-2.4-56.6-9.8
		c-35.7-14.8-66.2-39.5-93.5-66.4c-13.1-13.3-25.9-26.9-36.9-42.1c-14.2-19-27-39.1-37.6-60.4c-12.1-24-21-50.4-20-77.6
		C46.6,154,55.4,133.2,70.6,118.7z"/>
</g>
</svg>
