<svg xmlns="http://www.w3.org/2000/svg" xmlns:xlink="http://www.w3.org/1999/xlink" width="120.577" height="120.577" viewBox="0 0 120.577 120.577">
  <defs>
    <clipPath id="clip-path">
      <rect id="Rectangle_22" data-name="Rectangle 22" width="86.576" height="86.576" fill="none"/>
    </clipPath>
  </defs>
  <g id="Group_21" data-name="Group 21" transform="matrix(0.819, -0.574, 0.574, 0.819, 0, 49.658)" clip-path="url(#clip-path)">
    <path id="Path_31" data-name="Path 31" d="M85.761,20H32.726A12.726,12.726,0,0,0,20,32.726V85.761A12.726,12.726,0,0,0,32.726,98.487H85.761A12.726,12.726,0,0,0,98.487,85.761V32.726A12.726,12.726,0,0,0,85.761,20" transform="translate(-15.955 -15.955)" fill="#03015c"/>
    <path id="Path_32" data-name="Path 32" d="M69.806,0H16.77A16.789,16.789,0,0,0,0,16.77V69.806a16.789,16.789,0,0,0,16.77,16.77H69.806a16.789,16.789,0,0,0,16.77-16.77V16.77A16.789,16.789,0,0,0,69.806,0M82.532,69.806A12.726,12.726,0,0,1,69.806,82.532H16.77A12.726,12.726,0,0,1,4.045,69.806V16.77A12.726,12.726,0,0,1,16.77,4.045H69.806A12.726,12.726,0,0,1,82.532,16.77Z" fill="#dbe0ef"/>
    <path id="Path_33" data-name="Path 33" d="M100.447,133.913h6.619l10.377,31.831h-5.976l-4.848-16.938c-1.012-3.368-1.947-7-2.881-10.494h-.195c-.876,3.523-1.811,7.126-2.823,10.494l-4.887,16.938H90.071ZM96.2,152.69h14.991v4.431H96.2Z" transform="translate(-71.856 -106.832)" fill="#aba8ff"/>
    <path id="Path_34" data-name="Path 34" d="M234.742,182.765c0-7.768,5.393-12.559,11.019-12.559,6.464,0,9.871,4.673,9.871,11.35a14.545,14.545,0,0,1-.243,2.727H240.212c.467,4.244,3.193,6.658,7.047,6.658a10.2,10.2,0,0,0,5.549-1.732l1.908,3.484a14.84,14.84,0,0,1-8.2,2.588c-6.6,0-11.779-4.633-11.779-12.515m16.042-2.3c0-3.678-1.635-5.917-4.906-5.917-2.784,0-5.237,2.081-5.724,5.917Z" transform="translate(-187.27 -135.785)" fill="#aba8ff"/>
  </g>
</svg>
