<svg xmlns="http://www.w3.org/2000/svg" xmlns:xlink="http://www.w3.org/1999/xlink" width="109.1" height="109.1" viewBox="0 0 109.1 109.1">
  <defs>
    <clipPath id="clip-path">
      <rect id="Rectangle_20" data-name="Rectangle 20" width="90" height="90" fill="none"/>
    </clipPath>
  </defs>
  <g id="Group_17" data-name="Group 17" transform="translate(0 21.773) rotate(-14)" clip-path="url(#clip-path)">
    <rect id="Rectangle_19" data-name="Rectangle 19" width="85.795" height="85.795" rx="10" transform="translate(2.102 2.102)" fill="#350403"/>
    <path id="Path_24" data-name="Path 24" d="M72.567,4.2A13.229,13.229,0,0,1,85.8,17.433V72.566A13.229,13.229,0,0,1,72.567,85.8H17.433A13.229,13.229,0,0,1,4.2,72.566V17.433A13.229,13.229,0,0,1,17.433,4.2Zm0-4.2H17.433A17.453,17.453,0,0,0,0,17.433V72.566A17.453,17.453,0,0,0,17.433,90H72.567A17.453,17.453,0,0,0,90,72.566V17.433A17.453,17.453,0,0,0,72.567,0" fill="#dbe0ef"/>
    <path id="Path_25" data-name="Path 25" d="M133.06,141.8h6.881l10.787,33.09h-6.213l-5.04-17.608c-1.052-3.5-2.024-7.275-3-10.909h-.2c-.91,3.662-1.882,7.407-2.934,10.909l-5.081,17.608h-5.99Zm-4.412,19.52h15.584v4.606H128.649Z" transform="translate(-96.569 -111.99)" fill="#eba841"/>
    <path id="Path_26" data-name="Path 26" d="M271.565,132.207a3.617,3.617,0,1,1,3.6,3.3,3.329,3.329,0,0,1-3.6-3.3m.668,7.646h5.829v24.855h-5.829Z" transform="translate(-214.475 -101.807)" fill="#eba841"/>
  </g>
</svg>
