<svg xmlns="http://www.w3.org/2000/svg" xmlns:xlink="http://www.w3.org/1999/xlink" width="117.161" height="117.161" viewBox="0 0 117.161 117.161">
  <defs>
    <clipPath id="clip-path">
      <rect id="Rectangle_23" data-name="Rectangle 23" width="90" height="90" fill="none"/>
    </clipPath>
  </defs>
  <g id="Group_23" data-name="Group 23" transform="translate(33.715) rotate(22)" clip-path="url(#clip-path)">
    <path id="Path_35" data-name="Path 35" d="M88.362,20H33.229A13.229,13.229,0,0,0,20,33.229V88.362a13.229,13.229,0,0,0,13.229,13.229H88.362a13.229,13.229,0,0,0,13.229-13.229V33.229A13.229,13.229,0,0,0,88.362,20" transform="translate(-15.795 -15.795)" fill="#04035d"/>
    <path id="Path_36" data-name="Path 36" d="M72.566,0H17.433A17.453,17.453,0,0,0,0,17.433V72.566A17.453,17.453,0,0,0,17.433,90H72.566A17.453,17.453,0,0,0,90,72.566V17.433A17.453,17.453,0,0,0,72.566,0M85.8,72.566A13.229,13.229,0,0,1,72.566,85.8H17.433A13.229,13.229,0,0,1,4.2,72.566V17.433A13.229,13.229,0,0,1,17.433,4.2H72.566A13.229,13.229,0,0,1,85.8,17.433Z" fill="#dbe0ef"/>
    <path id="Path_37" data-name="Path 37" d="M108.892,135.353h10.423c7.347,0,12.791,2.55,12.791,10.2,0,7.379-5.465,10.728-12.589,10.728h-4.756v12.161h-5.869Zm10.14,16.232c4.938,0,7.286-1.965,7.286-6.031,0-4.107-2.57-5.5-7.488-5.5h-4.068v11.535Z" transform="translate(-86 -106.898)" fill="#a3a2fd"/>
    <path id="Path_38" data-name="Path 38" d="M246.634,172.253h4.776l.445,4.433h.162c1.77-3.238,4.4-5.039,7.063-5.039a6.3,6.3,0,0,1,2.813.507l-1.012,5.059a8.411,8.411,0,0,0-2.55-.4c-1.983,0-4.372,1.356-5.869,5.142v15.156h-5.829Z" transform="translate(-194.785 -135.562)" fill="#a3a2fd"/>
  </g>
</svg>
