<svg xmlns="http://www.w3.org/2000/svg" xmlns:xlink="http://www.w3.org/1999/xlink" width="113.407" height="113.406" viewBox="0 0 113.407 113.406">
  <defs>
    <clipPath id="clip-path">
      <rect id="Rectangle_21" data-name="Rectangle 21" width="90" height="90" fill="none"/>
    </clipPath>
  </defs>
  <g id="Group_19" data-name="Group 19" transform="translate(27.811) rotate(18)" clip-path="url(#clip-path)">
    <path id="Path_27" data-name="Path 27" d="M88.362,20H33.229A13.229,13.229,0,0,0,20,33.229V88.362a13.229,13.229,0,0,0,13.229,13.229H88.362a13.229,13.229,0,0,0,13.229-13.229V33.229A13.229,13.229,0,0,0,88.362,20" transform="translate(-15.795 -15.795)" fill="#031f3b"/>
    <path id="Path_28" data-name="Path 28" d="M72.567,0H17.434A17.453,17.453,0,0,0,0,17.433V72.566A17.453,17.453,0,0,0,17.434,90H72.567A17.453,17.453,0,0,0,90,72.566V17.433A17.453,17.453,0,0,0,72.567,0M85.8,72.566A13.229,13.229,0,0,1,72.567,85.8H17.434A13.229,13.229,0,0,1,4.2,72.566V17.433A13.229,13.229,0,0,1,17.434,4.2H72.567A13.229,13.229,0,0,1,85.8,17.433Z" fill="#dbe0ef"/>
    <path id="Path_29" data-name="Path 29" d="M106.918,133.914h10.423c7.347,0,12.79,2.55,12.79,10.2,0,7.378-5.464,10.728-12.587,10.728h-4.756V167h-5.87Zm10.14,16.232c4.938,0,7.286-1.965,7.286-6.031,0-4.108-2.57-5.5-7.488-5.5h-4.068v11.536Z" transform="translate(-84.441 -105.762)" fill="#5ab2e8"/>
    <path id="Path_30" data-name="Path 30" d="M230.506,192.811l2.712-3.7a10.955,10.955,0,0,0,6.861,2.772c2.712,0,3.987-1.273,3.987-2.974,0-2.085-2.692-3.016-5.343-4.025-3.258-1.228-6.982-3.1-6.982-7.247,0-4.309,3.481-7.428,9.047-7.428a13.382,13.382,0,0,1,8.257,2.975l-2.672,3.584a9.271,9.271,0,0,0-5.444-2.167c-2.5,0-3.684,1.195-3.684,2.752,0,1.965,2.51,2.711,5.2,3.7,3.36,1.257,7.124,2.876,7.124,7.51,0,4.268-3.38,7.708-9.654,7.708a15.521,15.521,0,0,1-9.411-3.461" transform="translate(-182.048 -134.424)" fill="#5ab2e8"/>
  </g>
</svg>
