<svg xmlns="http://www.w3.org/2000/svg" xmlns:xlink="http://www.w3.org/1999/xlink" width="103.353" height="103.353" viewBox="0 0 103.353 103.353">
  <defs>
    <clipPath id="clip-path">
      <rect id="Rectangle_24" data-name="Rectangle 24" width="79.393" height="79.393" fill="none"/>
    </clipPath>
  </defs>
  <g id="Group_25" data-name="Group 25" transform="matrix(0.927, -0.375, 0.375, 0.927, 0, 29.741)" clip-path="url(#clip-path)">
    <path id="Path_39" data-name="Path 39" d="M80.305,20H31.67A11.67,11.67,0,0,0,20,31.67V80.305a11.67,11.67,0,0,0,11.67,11.67H80.305a11.67,11.67,0,0,0,11.67-11.67V31.67A11.67,11.67,0,0,0,80.305,20" transform="translate(-16.291 -16.291)" fill="#400131"/>
    <path id="Path_40" data-name="Path 40" d="M64.014,0H15.379A15.4,15.4,0,0,0,0,15.379V64.014A15.4,15.4,0,0,0,15.379,79.393H64.014A15.4,15.4,0,0,0,79.393,64.014V15.379A15.4,15.4,0,0,0,64.014,0m11.67,64.014a11.67,11.67,0,0,1-11.67,11.67H15.379a11.67,11.67,0,0,1-11.67-11.67V15.379a11.67,11.67,0,0,1,11.67-11.67H64.014a11.67,11.67,0,0,1,11.67,11.67Z" fill="#dbe0ef"/>
    <path id="Path_41" data-name="Path 41" d="M101.172,154.355l-7.766-14.14h5.749l3.25,6.479c.7,1.341,1.321,2.7,2.2,4.463h.178c.732-1.767,1.321-3.122,1.964-4.463l3.089-6.479h5.5l-7.766,14.392,8.284,14.8H110.1l-3.57-6.89c-.75-1.483-1.482-2.966-2.339-4.75h-.179c-.768,1.784-1.464,3.267-2.16,4.75l-3.464,6.89h-5.5Z" transform="translate(-75.662 -114.212)" fill="#e577dc"/>
    <path id="Path_42" data-name="Path 42" d="M227.492,148.2c0-7.141,4.482-11.517,9.284-11.517a8.076,8.076,0,0,1,5.749,2.409l-.2-3.532v-7.945h5.142v31.527h-4.213l-.393-2.373h-.143a9.179,9.179,0,0,1-6.23,2.907c-5.463,0-9-4.248-9-11.477m14.837,4.765V142.749a6.481,6.481,0,0,0-4.463-1.821c-2.785,0-5.088,2.642-5.088,7.214,0,4.768,1.821,7.283,4.981,7.283a5.789,5.789,0,0,0,4.571-2.464" transform="translate(-185.304 -103.946)" fill="#e577dc"/>
  </g>
</svg>
