<svg xmlns="http://www.w3.org/2000/svg" width="150.737" height="27.5" viewBox="0 0 150.737 27.5">
  <path id="Path_2" data-name="Path 2" d="M10.729-12.74H5.046a1.167,1.167,0,0,1-1.32-1.32V-37.82a1.167,1.167,0,0,1,1.32-1.32h11.22a12.394,12.394,0,0,1,5.225.9,5.345,5.345,0,0,1,2.658,2.512,8.59,8.59,0,0,1,.77,3.74V-27.3a8.59,8.59,0,0,1-.77,3.74,5.345,5.345,0,0,1-2.658,2.512,12.394,12.394,0,0,1-5.225.9H12.049v6.087A1.167,1.167,0,0,1,10.729-12.74Zm1.247-19.543v5.537h3.3a1.5,1.5,0,0,0,1.393-.55A2.376,2.376,0,0,0,17-28.543v-1.943a2.351,2.351,0,0,0-.33-1.265,1.526,1.526,0,0,0-1.393-.532ZM29.466-12.74a1.167,1.167,0,0,1-1.32-1.32v-4.363a1.167,1.167,0,0,1,1.32-1.32H33.1v-12.32h-3.63a1.167,1.167,0,0,1-1.32-1.32V-37.82a1.167,1.167,0,0,1,1.32-1.32h15.62a1.167,1.167,0,0,1,1.32,1.32v4.437a1.167,1.167,0,0,1-1.32,1.32H41.529v12.32h3.557a1.167,1.167,0,0,1,1.32,1.32v4.363a1.167,1.167,0,0,1-1.32,1.32ZM58.8-14.06a1.167,1.167,0,0,1-1.32,1.32H51.906a1.167,1.167,0,0,1-1.32-1.32v-3.923a10.844,10.844,0,0,1,.128-1.852,5.058,5.058,0,0,1,.422-1.32,8.381,8.381,0,0,1,.843-1.338l2.97-4-2.97-4a12.468,12.468,0,0,1-.862-1.357,4.072,4.072,0,0,1-.422-1.3A12.619,12.619,0,0,1,50.586-35V-37.82a1.167,1.167,0,0,1,1.32-1.32h5.647a1.167,1.167,0,0,1,1.32,1.32v2.53q0,.367.037.77a1.579,1.579,0,0,0,.293.77l1.613,2.31a1.857,1.857,0,0,0,.385.458.756.756,0,0,0,.5.165h.44a.685.685,0,0,0,.477-.165,3.231,3.231,0,0,0,.4-.458l1.65-2.31a1.579,1.579,0,0,0,.293-.77q.037-.4.037-.77v-2.53a1.167,1.167,0,0,1,1.32-1.32h5.573a1.167,1.167,0,0,1,1.32,1.32V-35a12.619,12.619,0,0,1-.11,1.852,4.072,4.072,0,0,1-.422,1.3,12.468,12.468,0,0,1-.862,1.357l-2.97,4.033,2.97,3.96a7.318,7.318,0,0,1,.88,1.338,4.615,4.615,0,0,1,.4,1.32,12.619,12.619,0,0,1,.11,1.852v3.923a1.167,1.167,0,0,1-1.32,1.32H66.316A1.167,1.167,0,0,1,65-14.06v-3.777a6.482,6.482,0,0,0-.037-.678,1.538,1.538,0,0,0-.293-.715l-1.613-2.31a2.13,2.13,0,0,0-.4-.477.74.74,0,0,0-.477-.147h-.513a.74.74,0,0,0-.477.147,2.13,2.13,0,0,0-.4.477l-1.65,2.31a1.538,1.538,0,0,0-.293.715,6.48,6.48,0,0,0-.037.678v3.777Zm41.507-5.61a8.988,8.988,0,0,1-.495,3.062,5.276,5.276,0,0,1-1.742,2.365A8.863,8.863,0,0,1,94.6-12.722a24.946,24.946,0,0,1-5.665.532,24.946,24.946,0,0,1-5.665-.532,8.863,8.863,0,0,1-3.465-1.522,5.411,5.411,0,0,1-1.76-2.365,8.7,8.7,0,0,1-.513-3.062v-12.5a8.7,8.7,0,0,1,.513-3.062,5.411,5.411,0,0,1,1.76-2.365,9.046,9.046,0,0,1,3.465-1.54,24.144,24.144,0,0,1,5.665-.55,24.144,24.144,0,0,1,5.665.55,9.046,9.046,0,0,1,3.465,1.54,5.276,5.276,0,0,1,1.742,2.365,8.988,8.988,0,0,1,.495,3.062ZM85.859-20.99a1.586,1.586,0,0,0,.55,1.228,4.2,4.2,0,0,0,2.53.5,4.189,4.189,0,0,0,2.548-.5,1.61,1.61,0,0,0,.532-1.228v-9.863a1.554,1.554,0,0,0-.532-1.21,4.321,4.321,0,0,0-2.548-.477,4.329,4.329,0,0,0-2.53.477,1.531,1.531,0,0,0-.55,1.21Zm26.07,8.25h-5.647a1.167,1.167,0,0,1-1.32-1.32V-37.82a1.167,1.167,0,0,1,1.32-1.32h12.21a10.009,10.009,0,0,1,4.327.77,4.611,4.611,0,0,1,2.237,2.145,7.337,7.337,0,0,1,.66,3.208v1.687a6.817,6.817,0,0,1-.44,2.6,2.919,2.919,0,0,1-1.613,1.577,4.787,4.787,0,0,1,3.227,1.613,5.449,5.449,0,0,1,1.21,3.7v7.773a1.167,1.167,0,0,1-1.32,1.32H121.1a1.167,1.167,0,0,1-1.32-1.32v-5.61a1.867,1.867,0,0,0-.312-1.21,1.358,1.358,0,0,0-1.082-.367h-5.133v7.187A1.167,1.167,0,0,1,111.929-12.74Zm1.32-19.8v4.693H116a1.438,1.438,0,0,0,1.283-.495,2.166,2.166,0,0,0,.33-1.228v-1.247a2.166,2.166,0,0,0-.33-1.228,1.438,1.438,0,0,0-1.283-.5Zm26.437,18.48a1.167,1.167,0,0,1-1.32,1.32h-5.39a1.167,1.167,0,0,1-1.32-1.32v-9.68A10.848,10.848,0,0,1,132-26.27a27.9,27.9,0,0,1,1.082-3.337l3.19-8.323a1.752,1.752,0,0,1,1.87-1.21h9.863a1.726,1.726,0,0,1,1.833,1.21l3.19,8.323a27.9,27.9,0,0,1,1.082,3.337,10.847,10.847,0,0,1,.348,2.53v9.68a1.167,1.167,0,0,1-1.32,1.32h-5.537q-1.43,0-1.43-1.32v-5.133h-6.49Zm2.09-17.38-1.723,5.573h5.757l-1.723-5.573q-.257-.623-.7-.623h-.917Q142.033-32.063,141.776-31.44Z" transform="translate(-3.726 39.69)" fill="#fa0"/>
</svg>
